<?xml version="1.0" encoding="utf-8"?>
<!-- Generator: Adobe Illustrator 25.4.2, SVG Export Plug-In . SVG Version: 6.00 Build 0)  -->
<svg version="1.1" id="Layer_1" xmlns="http://www.w3.org/2000/svg" xmlns:xlink="http://www.w3.org/1999/xlink" x="0px" y="0px"
	 viewBox="0 0 90 90" style="enable-background:new 0 0 90 90;" xml:space="preserve">
<style type="text/css">
	.st0{fill:#1A1E24;}
	.st1{fill:#13CDC2;}
	.st2{fill:none;}
</style>
<g>
	<circle class="st0" cx="45" cy="45" r="45"/>
	<g>
		<path class="st1" d="M49,37.4H29l-6,7l16,19l16-19L49,37.4z M32.3,43.4h-5.8l3-3.6L32.3,43.4z M35.8,43.4l3.2-3.7l3.2,3.7H35.8z
			 M43,45.4l-4,13.4l-4-13.4H43z M33.5,45.4l3.8,12.9L26.5,45.4L33.5,45.4z M44.5,45.4h7.1L40.7,58.3L44.5,45.4z M45.7,43.4l2.7-3.6
			l3,3.6H45.7L45.7,43.4z M47,39.4L44.1,43l-2.9-3.6H47z M33.9,43L31,39.4h5.8L33.9,43z"/>
		<path class="st2" d="M23,33.5h32v32H23V33.5z"/>
		<path class="st1" d="M63.6,26.7H52.4L49,30.6l9,10.7l9-10.7L63.6,26.7L63.6,26.7z M54.2,30.1H51l1.7-2L54.2,30.1z M56.2,30.1
			L58,28l1.8,2.1H56.2z M60.2,31.2L58,38.7l-2.2-7.5H60.2z M54.9,31.2l2.1,7.3l-6.1-7.3H54.9z M61.1,31.2h4L59,38.4L61.1,31.2z
			 M61.8,30.1l1.5-2l1.7,2H61.8L61.8,30.1z M62.5,27.8l-1.6,2l-1.6-2H62.5z M55.1,29.9l-1.6-2.1h3.3L55.1,29.9z"/>
		<path class="st2" d="M49,24.5h18v18H49V24.5z"/>
	</g>
</g>
</svg>