<svg width="40" height="40" viewBox="0 0 40 40" fill="none" xmlns="http://www.w3.org/2000/svg">
<path d="M25.0204 31.0599C27.2296 31.0599 29.0204 32.8508 29.0204 35.0599C29.0204 37.2691 27.2296 39.0599 25.0204 39.0599C22.8113 39.0599 21.0204 37.2691 21.0204 35.0599V31.0599H25.0204ZM14.9804 21.0199C17.1896 21.0199 18.9804 22.8108 18.9804 25.0199V35.0199C18.9804 37.2291 17.1896 39.0199 14.9804 39.0199C12.7713 39.0199 10.9804 37.2291 10.9804 35.0199V25.0199C10.9804 22.8108 12.7713 21.0199 14.9804 21.0199ZM8.9404 21.0199V25.0199C8.9404 27.2291 7.1496 29.0199 4.94043 29.0199C2.73129 29.0199 0.94043 27.2291 0.94043 25.0199C0.94043 22.8108 2.73129 21.0199 4.94043 21.0199H8.9404ZM35.0604 21.0199C37.2696 21.0199 39.0604 22.8108 39.0604 25.0199C39.0604 27.2291 37.2696 29.0199 35.0604 29.0199H25.0604C23.6314 29.0199 22.3109 28.2575 21.5963 27.0199C20.8818 25.7823 20.8818 24.2575 21.5963 23.0199C22.3109 21.7823 23.6314 21.0199 25.0604 21.0199H35.0604ZM35.0604 10.9799C37.2696 10.9799 39.0604 12.7708 39.0604 14.9799C39.0604 17.1891 37.2696 18.9799 35.0604 18.9799H31.0604V14.9799C31.0604 12.7708 32.8513 10.9799 35.0604 10.9799ZM25.0204 0.979941C27.2296 0.979941 29.0204 2.7708 29.0204 4.97994V14.9799C29.0204 17.1891 27.2296 18.9799 25.0204 18.9799C22.8113 18.9799 21.0204 17.1891 21.0204 14.9799V4.97994C21.0204 2.7708 22.8113 0.979941 25.0204 0.979941ZM14.9804 10.9599C17.1896 10.9599 18.9804 12.7508 18.9804 14.9599C18.9804 17.1691 17.1896 18.9599 14.9804 18.9599H4.98043C2.77129 18.9599 0.98043 17.1691 0.98043 14.9599C0.98043 12.7508 2.77129 10.9599 4.98043 10.9599H14.9804ZM14.9804 0.939941C17.1896 0.939941 18.9804 2.7308 18.9804 4.93994V8.9399H14.9804C12.7713 8.9399 10.9804 7.1491 10.9804 4.93994C10.9804 2.7308 12.7713 0.939941 14.9804 0.939941Z" fill="black"/>
</svg>
