<?xml version="1.0" encoding="utf-8" standalone="no"?>
<!DOCTYPE svg PUBLIC "-//W3C//DTD SVG 1.1//EN"
  "http://www.w3.org/Graphics/SVG/1.1/DTD/svg11.dtd">
<svg xmlns:xlink="http://www.w3.org/1999/xlink" width="792pt" height="432pt" viewBox="0 0 792 432" xmlns="http://www.w3.org/2000/svg" version="1.1">
 <metadata>
  <rdf:RDF xmlns:dc="http://purl.org/dc/elements/1.1/" xmlns:cc="http://creativecommons.org/ns#" xmlns:rdf="http://www.w3.org/1999/02/22-rdf-syntax-ns#">
   <cc:Work>
    <dc:type rdf:resource="http://purl.org/dc/dcmitype/StillImage"/>
    <dc:date>2022-05-21T17:05:58.357053</dc:date>
    <dc:format>image/svg+xml</dc:format>
    <dc:creator>
     <cc:Agent>
      <dc:title>Matplotlib v3.5.2, https://matplotlib.org/</dc:title>
     </cc:Agent>
    </dc:creator>
   </cc:Work>
  </rdf:RDF>
 </metadata>
 <defs>
  <style type="text/css">*{stroke-linejoin: round; stroke-linecap: butt}</style>
 </defs>
 <g id="figure_1">
  <g id="patch_1">
   <path d="M 0 432 
L 792 432 
L 792 0 
L 0 0 
z
" style="fill: #ffffff"/>
  </g>
  <g id="axes_1">
   <g id="matplotlib.axis_1"/>
   <g id="matplotlib.axis_2"/>
   <g id="patch_2">
    <path d="M 133.193181 62.288842 
C 130.422724 57.490268 126.797199 53.239068 122.496175 49.745798 
C 118.195151 46.252527 113.290827 43.575826 108.026106 41.848267 
C 102.761385 40.120708 97.224644 39.371291 91.690109 39.637134 
C 86.155575 39.902977 80.716152 41.179617 75.641248 43.403823 
C 70.566344 45.62803 65.941149 48.762467 61.994741 52.65189 
C 58.048333 56.541313 54.846959 61.120432 52.549179 66.16245 
C 50.251398 71.204469 48.895783 76.624749 48.549475 82.154832 
C 48.203166 87.684915 48.871978 93.23197 50.522784 98.521259 
C 52.173591 103.810549 54.778681 108.753284 58.209028 113.104659 
C 61.639375 117.456034 65.837396 121.143004 70.595169 123.982959 
C 75.352942 126.822914 80.5906 128.76818 86.048731 129.722413 
C 91.506861 130.676646 97.09384 130.623826 102.532954 129.566569 
C 107.972067 128.509313 113.172011 126.465368 117.875239 123.535967 
C 122.578468 120.606567 126.706031 116.840886 130.053495 112.425433 
C 133.40096 108.009979 135.912134 103.018874 137.462643 97.699319 
C 139.013152 92.379764 139.576969 86.821056 139.126167 81.298509 
L 93.8687 84.992842 
L 133.193181 62.288842 
z
" style="fill: #1f77b4; stroke: #ffffff; stroke-linejoin: miter"/>
   </g>
   <g id="patch_3">
    <path d="M 143.460759 79.945667 
C 143.18824 76.607176 142.547153 73.309066 141.549207 70.111584 
C 140.551262 66.914101 139.202571 63.836836 137.527774 60.936002 
L 98.203291 83.64 
L 143.460759 79.945667 
z
" style="fill: #ff7f0e; stroke: #ffffff; stroke-linejoin: miter"/>
   </g>
   <g id="text_1">
    <!-- Yes -->
    <g style="fill: #262626" transform="translate(30.04288 102.633476)scale(0.1 -0.1)">
     <defs>
      <path id="DejaVuSans-59" d="M -13 4666 
L 666 4666 
L 1959 2747 
L 3244 4666 
L 3922 4666 
L 2272 2222 
L 2272 0 
L 1638 0 
L 1638 2222 
L -13 4666 
z
" transform="scale(0.015625)"/>
      <path id="DejaVuSans-65" d="M 3597 1894 
L 3597 1613 
L 953 1613 
Q 991 1019 1311 708 
Q 1631 397 2203 397 
Q 2534 397 2845 478 
Q 3156 559 3463 722 
L 3463 178 
Q 3153 47 2828 -22 
Q 2503 -91 2169 -91 
Q 1331 -91 842 396 
Q 353 884 353 1716 
Q 353 2575 817 3079 
Q 1281 3584 2069 3584 
Q 2775 3584 3186 3129 
Q 3597 2675 3597 1894 
z
M 3022 2063 
Q 3016 2534 2758 2815 
Q 2500 3097 2075 3097 
Q 1594 3097 1305 2825 
Q 1016 2553 972 2059 
L 3022 2063 
z
" transform="scale(0.015625)"/>
      <path id="DejaVuSans-73" d="M 2834 3397 
L 2834 2853 
Q 2591 2978 2328 3040 
Q 2066 3103 1784 3103 
Q 1356 3103 1142 2972 
Q 928 2841 928 2578 
Q 928 2378 1081 2264 
Q 1234 2150 1697 2047 
L 1894 2003 
Q 2506 1872 2764 1633 
Q 3022 1394 3022 966 
Q 3022 478 2636 193 
Q 2250 -91 1575 -91 
Q 1294 -91 989 -36 
Q 684 19 347 128 
L 347 722 
Q 666 556 975 473 
Q 1284 391 1588 391 
Q 1994 391 2212 530 
Q 2431 669 2431 922 
Q 2431 1156 2273 1281 
Q 2116 1406 1581 1522 
L 1381 1569 
Q 847 1681 609 1914 
Q 372 2147 372 2553 
Q 372 3047 722 3315 
Q 1072 3584 1716 3584 
Q 2034 3584 2315 3537 
Q 2597 3491 2834 3397 
z
" transform="scale(0.015625)"/>
     </defs>
     <use xlink:href="#DejaVuSans-59"/>
     <use xlink:href="#DejaVuSans-65" x="47.833984"/>
     <use xlink:href="#DejaVuSans-73" x="109.357422"/>
    </g>
   </g>
   <g id="text_2">
    <!-- 93% -->
    <g style="fill: #262626" transform="translate(56.747869 95.869267)scale(0.1 -0.1)">
     <defs>
      <path id="DejaVuSans-39" d="M 703 97 
L 703 672 
Q 941 559 1184 500 
Q 1428 441 1663 441 
Q 2288 441 2617 861 
Q 2947 1281 2994 2138 
Q 2813 1869 2534 1725 
Q 2256 1581 1919 1581 
Q 1219 1581 811 2004 
Q 403 2428 403 3163 
Q 403 3881 828 4315 
Q 1253 4750 1959 4750 
Q 2769 4750 3195 4129 
Q 3622 3509 3622 2328 
Q 3622 1225 3098 567 
Q 2575 -91 1691 -91 
Q 1453 -91 1209 -44 
Q 966 3 703 97 
z
M 1959 2075 
Q 2384 2075 2632 2365 
Q 2881 2656 2881 3163 
Q 2881 3666 2632 3958 
Q 2384 4250 1959 4250 
Q 1534 4250 1286 3958 
Q 1038 3666 1038 3163 
Q 1038 2656 1286 2365 
Q 1534 2075 1959 2075 
z
" transform="scale(0.015625)"/>
      <path id="DejaVuSans-33" d="M 2597 2516 
Q 3050 2419 3304 2112 
Q 3559 1806 3559 1356 
Q 3559 666 3084 287 
Q 2609 -91 1734 -91 
Q 1441 -91 1130 -33 
Q 819 25 488 141 
L 488 750 
Q 750 597 1062 519 
Q 1375 441 1716 441 
Q 2309 441 2620 675 
Q 2931 909 2931 1356 
Q 2931 1769 2642 2001 
Q 2353 2234 1838 2234 
L 1294 2234 
L 1294 2753 
L 1863 2753 
Q 2328 2753 2575 2939 
Q 2822 3125 2822 3475 
Q 2822 3834 2567 4026 
Q 2313 4219 1838 4219 
Q 1578 4219 1281 4162 
Q 984 4106 628 3988 
L 628 4550 
Q 988 4650 1302 4700 
Q 1616 4750 1894 4750 
Q 2613 4750 3031 4423 
Q 3450 4097 3450 3541 
Q 3450 3153 3228 2886 
Q 3006 2619 2597 2516 
z
" transform="scale(0.015625)"/>
      <path id="DejaVuSans-25" d="M 4653 2053 
Q 4381 2053 4226 1822 
Q 4072 1591 4072 1178 
Q 4072 772 4226 539 
Q 4381 306 4653 306 
Q 4919 306 5073 539 
Q 5228 772 5228 1178 
Q 5228 1588 5073 1820 
Q 4919 2053 4653 2053 
z
M 4653 2450 
Q 5147 2450 5437 2106 
Q 5728 1763 5728 1178 
Q 5728 594 5436 251 
Q 5144 -91 4653 -91 
Q 4153 -91 3862 251 
Q 3572 594 3572 1178 
Q 3572 1766 3864 2108 
Q 4156 2450 4653 2450 
z
M 1428 4353 
Q 1159 4353 1004 4120 
Q 850 3888 850 3481 
Q 850 3069 1003 2837 
Q 1156 2606 1428 2606 
Q 1700 2606 1854 2837 
Q 2009 3069 2009 3481 
Q 2009 3884 1853 4118 
Q 1697 4353 1428 4353 
z
M 4250 4750 
L 4750 4750 
L 1831 -91 
L 1331 -91 
L 4250 4750 
z
M 1428 4750 
Q 1922 4750 2215 4408 
Q 2509 4066 2509 3481 
Q 2509 2891 2217 2550 
Q 1925 2209 1428 2209 
Q 931 2209 642 2551 
Q 353 2894 353 3481 
Q 353 4063 643 4406 
Q 934 4750 1428 4750 
z
" transform="scale(0.015625)"/>
     </defs>
     <use xlink:href="#DejaVuSans-39"/>
     <use xlink:href="#DejaVuSans-33" x="63.623047"/>
     <use xlink:href="#DejaVuSans-25" x="127.246094"/>
    </g>
   </g>
   <g id="text_3">
    <!-- No -->
    <g style="fill: #262626" transform="translate(145.883799 71.518117)scale(0.1 -0.1)">
     <defs>
      <path id="DejaVuSans-4e" d="M 628 4666 
L 1478 4666 
L 3547 763 
L 3547 4666 
L 4159 4666 
L 4159 0 
L 3309 0 
L 1241 3903 
L 1241 0 
L 628 0 
L 628 4666 
z
" transform="scale(0.015625)"/>
      <path id="DejaVuSans-6f" d="M 1959 3097 
Q 1497 3097 1228 2736 
Q 959 2375 959 1747 
Q 959 1119 1226 758 
Q 1494 397 1959 397 
Q 2419 397 2687 759 
Q 2956 1122 2956 1747 
Q 2956 2369 2687 2733 
Q 2419 3097 1959 3097 
z
M 1959 3584 
Q 2709 3584 3137 3096 
Q 3566 2609 3566 1747 
Q 3566 888 3137 398 
Q 2709 -91 1959 -91 
Q 1206 -91 779 398 
Q 353 888 353 1747 
Q 353 2609 779 3096 
Q 1206 3584 1959 3584 
z
" transform="scale(0.015625)"/>
     </defs>
     <use xlink:href="#DejaVuSans-4e"/>
     <use xlink:href="#DejaVuSans-6f" x="74.804688"/>
    </g>
   </g>
   <g id="text_4">
    <!-- 7% -->
    <g style="fill: #262626" transform="translate(116.27881 78.282325)scale(0.1 -0.1)">
     <defs>
      <path id="DejaVuSans-37" d="M 525 4666 
L 3525 4666 
L 3525 4397 
L 1831 0 
L 1172 0 
L 2766 4134 
L 525 4134 
L 525 4666 
z
" transform="scale(0.015625)"/>
     </defs>
     <use xlink:href="#DejaVuSans-37"/>
     <use xlink:href="#DejaVuSans-25" x="63.623047"/>
    </g>
   </g>
   <g id="text_5">
    <!-- Name -->
    <g style="fill: #262626" transform="translate(80.501416 20.88)scale(0.12 -0.12)">
     <defs>
      <path id="DejaVuSans-61" d="M 2194 1759 
Q 1497 1759 1228 1600 
Q 959 1441 959 1056 
Q 959 750 1161 570 
Q 1363 391 1709 391 
Q 2188 391 2477 730 
Q 2766 1069 2766 1631 
L 2766 1759 
L 2194 1759 
z
M 3341 1997 
L 3341 0 
L 2766 0 
L 2766 531 
Q 2569 213 2275 61 
Q 1981 -91 1556 -91 
Q 1019 -91 701 211 
Q 384 513 384 1019 
Q 384 1609 779 1909 
Q 1175 2209 1959 2209 
L 2766 2209 
L 2766 2266 
Q 2766 2663 2505 2880 
Q 2244 3097 1772 3097 
Q 1472 3097 1187 3025 
Q 903 2953 641 2809 
L 641 3341 
Q 956 3463 1253 3523 
Q 1550 3584 1831 3584 
Q 2591 3584 2966 3190 
Q 3341 2797 3341 1997 
z
" transform="scale(0.015625)"/>
      <path id="DejaVuSans-6d" d="M 3328 2828 
Q 3544 3216 3844 3400 
Q 4144 3584 4550 3584 
Q 5097 3584 5394 3201 
Q 5691 2819 5691 2113 
L 5691 0 
L 5113 0 
L 5113 2094 
Q 5113 2597 4934 2840 
Q 4756 3084 4391 3084 
Q 3944 3084 3684 2787 
Q 3425 2491 3425 1978 
L 3425 0 
L 2847 0 
L 2847 2094 
Q 2847 2600 2669 2842 
Q 2491 3084 2119 3084 
Q 1678 3084 1418 2786 
Q 1159 2488 1159 1978 
L 1159 0 
L 581 0 
L 581 3500 
L 1159 3500 
L 1159 2956 
Q 1356 3278 1631 3431 
Q 1906 3584 2284 3584 
Q 2666 3584 2933 3390 
Q 3200 3197 3328 2828 
z
" transform="scale(0.015625)"/>
     </defs>
     <use xlink:href="#DejaVuSans-4e"/>
     <use xlink:href="#DejaVuSans-61" x="74.804688"/>
     <use xlink:href="#DejaVuSans-6d" x="136.083984"/>
     <use xlink:href="#DejaVuSans-65" x="233.496094"/>
    </g>
   </g>
  </g>
  <g id="axes_2">
   <g id="matplotlib.axis_3"/>
   <g id="matplotlib.axis_4"/>
   <g id="patch_4">
    <path d="M 308.528805 62.288842 
C 305.758347 57.490268 302.132823 53.239068 297.831799 49.745798 
C 293.530775 46.252527 288.62645 43.575826 283.361729 41.848267 
C 278.097008 40.120708 272.560267 39.371291 267.025733 39.637134 
C 261.491198 39.902977 256.051776 41.179617 250.976871 43.403823 
C 245.901967 45.62803 241.276772 48.762467 237.330364 52.65189 
C 233.383956 56.541313 230.182582 61.120432 227.884802 66.16245 
C 225.587022 71.204469 224.231407 76.624749 223.885098 82.154832 
C 223.53879 87.684915 224.207601 93.23197 225.858408 98.521259 
C 227.509214 103.810549 230.114304 108.753284 233.544651 113.104659 
C 236.974999 117.456034 241.17302 121.143004 245.930792 123.982959 
C 250.688565 126.822914 255.926224 128.76818 261.384354 129.722413 
C 266.842484 130.676646 272.429463 130.623826 277.868577 129.566569 
C 283.30769 128.509313 288.507634 126.465368 293.210863 123.535967 
C 297.914091 120.606567 302.041654 116.840886 305.389119 112.425433 
C 308.736583 108.009979 311.247757 103.018874 312.798267 97.699319 
C 314.348776 92.379764 314.912592 86.821056 314.461791 81.298509 
L 269.204323 84.992842 
L 308.528805 62.288842 
z
" style="fill: #1f77b4; stroke: #ffffff; stroke-linejoin: miter"/>
   </g>
   <g id="patch_5">
    <path d="M 318.796382 79.945667 
C 318.523864 76.607176 317.882776 73.309066 316.884831 70.111584 
C 315.886885 66.914101 314.538195 63.836836 312.863397 60.936002 
L 273.538915 83.64 
L 318.796382 79.945667 
z
" style="fill: #ff7f0e; stroke: #ffffff; stroke-linejoin: miter"/>
   </g>
   <g id="text_6">
    <!-- Yes -->
    <g style="fill: #262626" transform="translate(205.378504 102.633476)scale(0.1 -0.1)">
     <use xlink:href="#DejaVuSans-59"/>
     <use xlink:href="#DejaVuSans-65" x="47.833984"/>
     <use xlink:href="#DejaVuSans-73" x="109.357422"/>
    </g>
   </g>
   <g id="text_7">
    <!-- 93% -->
    <g style="fill: #262626" transform="translate(232.083493 95.869267)scale(0.1 -0.1)">
     <use xlink:href="#DejaVuSans-39"/>
     <use xlink:href="#DejaVuSans-33" x="63.623047"/>
     <use xlink:href="#DejaVuSans-25" x="127.246094"/>
    </g>
   </g>
   <g id="text_8">
    <!-- No -->
    <g style="fill: #262626" transform="translate(321.219422 71.518117)scale(0.1 -0.1)">
     <use xlink:href="#DejaVuSans-4e"/>
     <use xlink:href="#DejaVuSans-6f" x="74.804688"/>
    </g>
   </g>
   <g id="text_9">
    <!-- 7% -->
    <g style="fill: #262626" transform="translate(291.614433 78.282325)scale(0.1 -0.1)">
     <use xlink:href="#DejaVuSans-37"/>
     <use xlink:href="#DejaVuSans-25" x="63.623047"/>
    </g>
   </g>
   <g id="text_10">
    <!-- Homepage -->
    <g style="fill: #262626" transform="translate(240.832352 20.88)scale(0.12 -0.12)">
     <defs>
      <path id="DejaVuSans-48" d="M 628 4666 
L 1259 4666 
L 1259 2753 
L 3553 2753 
L 3553 4666 
L 4184 4666 
L 4184 0 
L 3553 0 
L 3553 2222 
L 1259 2222 
L 1259 0 
L 628 0 
L 628 4666 
z
" transform="scale(0.015625)"/>
      <path id="DejaVuSans-70" d="M 1159 525 
L 1159 -1331 
L 581 -1331 
L 581 3500 
L 1159 3500 
L 1159 2969 
Q 1341 3281 1617 3432 
Q 1894 3584 2278 3584 
Q 2916 3584 3314 3078 
Q 3713 2572 3713 1747 
Q 3713 922 3314 415 
Q 2916 -91 2278 -91 
Q 1894 -91 1617 61 
Q 1341 213 1159 525 
z
M 3116 1747 
Q 3116 2381 2855 2742 
Q 2594 3103 2138 3103 
Q 1681 3103 1420 2742 
Q 1159 2381 1159 1747 
Q 1159 1113 1420 752 
Q 1681 391 2138 391 
Q 2594 391 2855 752 
Q 3116 1113 3116 1747 
z
" transform="scale(0.015625)"/>
      <path id="DejaVuSans-67" d="M 2906 1791 
Q 2906 2416 2648 2759 
Q 2391 3103 1925 3103 
Q 1463 3103 1205 2759 
Q 947 2416 947 1791 
Q 947 1169 1205 825 
Q 1463 481 1925 481 
Q 2391 481 2648 825 
Q 2906 1169 2906 1791 
z
M 3481 434 
Q 3481 -459 3084 -895 
Q 2688 -1331 1869 -1331 
Q 1566 -1331 1297 -1286 
Q 1028 -1241 775 -1147 
L 775 -588 
Q 1028 -725 1275 -790 
Q 1522 -856 1778 -856 
Q 2344 -856 2625 -561 
Q 2906 -266 2906 331 
L 2906 616 
Q 2728 306 2450 153 
Q 2172 0 1784 0 
Q 1141 0 747 490 
Q 353 981 353 1791 
Q 353 2603 747 3093 
Q 1141 3584 1784 3584 
Q 2172 3584 2450 3431 
Q 2728 3278 2906 2969 
L 2906 3500 
L 3481 3500 
L 3481 434 
z
" transform="scale(0.015625)"/>
     </defs>
     <use xlink:href="#DejaVuSans-48"/>
     <use xlink:href="#DejaVuSans-6f" x="75.195312"/>
     <use xlink:href="#DejaVuSans-6d" x="136.376953"/>
     <use xlink:href="#DejaVuSans-65" x="233.789062"/>
     <use xlink:href="#DejaVuSans-70" x="295.3125"/>
     <use xlink:href="#DejaVuSans-61" x="358.789062"/>
     <use xlink:href="#DejaVuSans-67" x="420.068359"/>
     <use xlink:href="#DejaVuSans-65" x="483.544922"/>
    </g>
   </g>
  </g>
  <g id="axes_3">
   <g id="matplotlib.axis_5"/>
   <g id="matplotlib.axis_6"/>
   <g id="patch_6">
    <path d="M 483.864428 62.288842 
C 481.09397 57.490268 477.468446 53.239068 473.167422 49.745798 
C 468.866398 46.252527 463.962074 43.575826 458.697353 41.848267 
C 453.432632 40.120708 447.895891 39.371291 442.361356 39.637134 
C 436.826821 39.902977 431.387399 41.179617 426.312495 43.403823 
C 421.237591 45.62803 416.612395 48.762467 412.665987 52.65189 
C 408.719579 56.541313 405.518206 61.120432 403.220425 66.16245 
C 400.922645 71.204469 399.56703 76.624749 399.220721 82.154832 
C 398.874413 87.684915 399.543225 93.23197 401.194031 98.521259 
C 402.844838 103.810549 405.449927 108.753284 408.880275 113.104659 
C 412.310622 117.456034 416.508643 121.143004 421.266416 123.982959 
C 426.024189 126.822914 431.261847 128.76818 436.719977 129.722413 
C 442.178108 130.676646 447.765087 130.623826 453.2042 129.566569 
C 458.643314 128.509313 463.843257 126.465368 468.546486 123.535967 
C 473.249715 120.606567 477.377277 116.840886 480.724742 112.425433 
C 484.072207 108.009979 486.583381 103.018874 488.13389 97.699319 
C 489.684399 92.379764 490.248215 86.821056 489.797414 81.298509 
L 444.539947 84.992842 
L 483.864428 62.288842 
z
" style="fill: #1f77b4; stroke: #ffffff; stroke-linejoin: miter"/>
   </g>
   <g id="patch_7">
    <path d="M 494.132006 79.945667 
C 493.859487 76.607176 493.2184 73.309066 492.220454 70.111584 
C 491.222508 66.914101 489.873818 63.836836 488.199021 60.936002 
L 448.874538 83.64 
L 494.132006 79.945667 
z
" style="fill: #ff7f0e; stroke: #ffffff; stroke-linejoin: miter"/>
   </g>
   <g id="text_11">
    <!-- Yes -->
    <g style="fill: #262626" transform="translate(380.714127 102.633476)scale(0.1 -0.1)">
     <use xlink:href="#DejaVuSans-59"/>
     <use xlink:href="#DejaVuSans-65" x="47.833984"/>
     <use xlink:href="#DejaVuSans-73" x="109.357422"/>
    </g>
   </g>
   <g id="text_12">
    <!-- 93% -->
    <g style="fill: #262626" transform="translate(407.419116 95.869267)scale(0.1 -0.1)">
     <use xlink:href="#DejaVuSans-39"/>
     <use xlink:href="#DejaVuSans-33" x="63.623047"/>
     <use xlink:href="#DejaVuSans-25" x="127.246094"/>
    </g>
   </g>
   <g id="text_13">
    <!-- No -->
    <g style="fill: #262626" transform="translate(496.555045 71.518117)scale(0.1 -0.1)">
     <use xlink:href="#DejaVuSans-4e"/>
     <use xlink:href="#DejaVuSans-6f" x="74.804688"/>
    </g>
   </g>
   <g id="text_14">
    <!-- 7% -->
    <g style="fill: #262626" transform="translate(466.950056 78.282325)scale(0.1 -0.1)">
     <use xlink:href="#DejaVuSans-37"/>
     <use xlink:href="#DejaVuSans-25" x="63.623047"/>
    </g>
   </g>
   <g id="text_15">
    <!-- Description -->
    <g style="fill: #262626" transform="translate(414.702663 20.88)scale(0.12 -0.12)">
     <defs>
      <path id="DejaVuSans-44" d="M 1259 4147 
L 1259 519 
L 2022 519 
Q 2988 519 3436 956 
Q 3884 1394 3884 2338 
Q 3884 3275 3436 3711 
Q 2988 4147 2022 4147 
L 1259 4147 
z
M 628 4666 
L 1925 4666 
Q 3281 4666 3915 4102 
Q 4550 3538 4550 2338 
Q 4550 1131 3912 565 
Q 3275 0 1925 0 
L 628 0 
L 628 4666 
z
" transform="scale(0.015625)"/>
      <path id="DejaVuSans-63" d="M 3122 3366 
L 3122 2828 
Q 2878 2963 2633 3030 
Q 2388 3097 2138 3097 
Q 1578 3097 1268 2742 
Q 959 2388 959 1747 
Q 959 1106 1268 751 
Q 1578 397 2138 397 
Q 2388 397 2633 464 
Q 2878 531 3122 666 
L 3122 134 
Q 2881 22 2623 -34 
Q 2366 -91 2075 -91 
Q 1284 -91 818 406 
Q 353 903 353 1747 
Q 353 2603 823 3093 
Q 1294 3584 2113 3584 
Q 2378 3584 2631 3529 
Q 2884 3475 3122 3366 
z
" transform="scale(0.015625)"/>
      <path id="DejaVuSans-72" d="M 2631 2963 
Q 2534 3019 2420 3045 
Q 2306 3072 2169 3072 
Q 1681 3072 1420 2755 
Q 1159 2438 1159 1844 
L 1159 0 
L 581 0 
L 581 3500 
L 1159 3500 
L 1159 2956 
Q 1341 3275 1631 3429 
Q 1922 3584 2338 3584 
Q 2397 3584 2469 3576 
Q 2541 3569 2628 3553 
L 2631 2963 
z
" transform="scale(0.015625)"/>
      <path id="DejaVuSans-69" d="M 603 3500 
L 1178 3500 
L 1178 0 
L 603 0 
L 603 3500 
z
M 603 4863 
L 1178 4863 
L 1178 4134 
L 603 4134 
L 603 4863 
z
" transform="scale(0.015625)"/>
      <path id="DejaVuSans-74" d="M 1172 4494 
L 1172 3500 
L 2356 3500 
L 2356 3053 
L 1172 3053 
L 1172 1153 
Q 1172 725 1289 603 
Q 1406 481 1766 481 
L 2356 481 
L 2356 0 
L 1766 0 
Q 1100 0 847 248 
Q 594 497 594 1153 
L 594 3053 
L 172 3053 
L 172 3500 
L 594 3500 
L 594 4494 
L 1172 4494 
z
" transform="scale(0.015625)"/>
      <path id="DejaVuSans-6e" d="M 3513 2113 
L 3513 0 
L 2938 0 
L 2938 2094 
Q 2938 2591 2744 2837 
Q 2550 3084 2163 3084 
Q 1697 3084 1428 2787 
Q 1159 2491 1159 1978 
L 1159 0 
L 581 0 
L 581 3500 
L 1159 3500 
L 1159 2956 
Q 1366 3272 1645 3428 
Q 1925 3584 2291 3584 
Q 2894 3584 3203 3211 
Q 3513 2838 3513 2113 
z
" transform="scale(0.015625)"/>
     </defs>
     <use xlink:href="#DejaVuSans-44"/>
     <use xlink:href="#DejaVuSans-65" x="77.001953"/>
     <use xlink:href="#DejaVuSans-73" x="138.525391"/>
     <use xlink:href="#DejaVuSans-63" x="190.625"/>
     <use xlink:href="#DejaVuSans-72" x="245.605469"/>
     <use xlink:href="#DejaVuSans-69" x="286.71875"/>
     <use xlink:href="#DejaVuSans-70" x="314.501953"/>
     <use xlink:href="#DejaVuSans-74" x="377.978516"/>
     <use xlink:href="#DejaVuSans-69" x="417.1875"/>
     <use xlink:href="#DejaVuSans-6f" x="444.970703"/>
     <use xlink:href="#DejaVuSans-6e" x="506.152344"/>
    </g>
   </g>
  </g>
  <g id="axes_4">
   <g id="matplotlib.axis_7"/>
   <g id="matplotlib.axis_8"/>
   <g id="patch_8">
    <path d="M 659.141804 62.085709 
C 656.415734 57.364017 652.861416 53.171673 648.649371 49.709808 
C 644.437326 46.247943 639.636009 43.57282 634.475768 41.81278 
C 629.315527 40.05274 623.880226 39.236387 618.430629 39.402888 
C 612.981032 39.569388 607.605706 40.716035 602.562538 42.787818 
C 597.519369 44.8596 592.89032 47.822847 588.897474 51.535395 
C 584.904627 55.247942 581.612875 59.649453 579.180142 64.52876 
C 576.74741 69.408067 575.213233 74.685873 574.651216 80.108969 
C 574.0892 85.532064 574.508477 91.012314 575.888933 96.286797 
C 577.269388 101.56128 579.588588 106.544276 582.735264 110.99672 
C 585.881941 115.449163 589.804955 119.298694 594.316096 122.360627 
C 598.827237 125.42256 603.853191 127.647133 609.152831 128.927619 
C 614.452471 130.208104 619.939668 130.523693 625.351169 129.859244 
C 630.762669 129.194795 636.010525 127.561107 640.842965 125.036557 
C 645.675406 122.512008 650.013894 119.137626 653.650285 115.075301 
C 657.286677 111.012976 660.161875 106.328729 662.137937 101.247292 
C 664.114 96.165854 665.158812 90.769809 665.222249 85.318039 
L 619.817322 84.789709 
L 659.141804 62.085709 
z
" style="fill: #1f77b4; stroke: #ffffff; stroke-linejoin: miter"/>
   </g>
   <g id="patch_9">
    <path d="M 669.615088 84.16833 
C 669.662288 80.111917 669.165685 76.067411 668.138551 72.14291 
C 667.111417 68.218409 665.562985 64.449191 663.534641 60.935996 
L 624.210161 83.64 
L 669.615088 84.16833 
z
" style="fill: #ff7f0e; stroke: #ffffff; stroke-linejoin: miter"/>
   </g>
   <g id="text_16">
    <!-- Yes -->
    <g style="fill: #262626" transform="translate(555.350781 100.195881)scale(0.1 -0.1)">
     <use xlink:href="#DejaVuSans-59"/>
     <use xlink:href="#DejaVuSans-65" x="47.833984"/>
     <use xlink:href="#DejaVuSans-73" x="109.357422"/>
    </g>
   </g>
   <g id="text_17">
    <!-- 91% -->
    <g style="fill: #262626" transform="translate(582.347007 94.447337)scale(0.1 -0.1)">
     <defs>
      <path id="DejaVuSans-31" d="M 794 531 
L 1825 531 
L 1825 4091 
L 703 3866 
L 703 4441 
L 1819 4666 
L 2450 4666 
L 2450 531 
L 3481 531 
L 3481 0 
L 794 0 
L 794 531 
z
" transform="scale(0.015625)"/>
     </defs>
     <use xlink:href="#DejaVuSans-39"/>
     <use xlink:href="#DejaVuSans-31" x="63.623047"/>
     <use xlink:href="#DejaVuSans-25" x="127.246094"/>
    </g>
   </g>
   <g id="text_18">
    <!-- No -->
    <g style="fill: #262626" transform="translate(672.53139 73.752576)scale(0.1 -0.1)">
     <use xlink:href="#DejaVuSans-4e"/>
     <use xlink:href="#DejaVuSans-6f" x="74.804688"/>
    </g>
   </g>
   <g id="text_19">
    <!-- 9% -->
    <g style="fill: #262626" transform="translate(642.635164 79.501121)scale(0.1 -0.1)">
     <use xlink:href="#DejaVuSans-39"/>
     <use xlink:href="#DejaVuSans-25" x="63.623047"/>
    </g>
   </g>
   <g id="text_20">
    <!-- Example -->
    <g style="fill: #262626" transform="translate(598.178599 20.88)scale(0.12 -0.12)">
     <defs>
      <path id="DejaVuSans-45" d="M 628 4666 
L 3578 4666 
L 3578 4134 
L 1259 4134 
L 1259 2753 
L 3481 2753 
L 3481 2222 
L 1259 2222 
L 1259 531 
L 3634 531 
L 3634 0 
L 628 0 
L 628 4666 
z
" transform="scale(0.015625)"/>
      <path id="DejaVuSans-78" d="M 3513 3500 
L 2247 1797 
L 3578 0 
L 2900 0 
L 1881 1375 
L 863 0 
L 184 0 
L 1544 1831 
L 300 3500 
L 978 3500 
L 1906 2253 
L 2834 3500 
L 3513 3500 
z
" transform="scale(0.015625)"/>
      <path id="DejaVuSans-6c" d="M 603 4863 
L 1178 4863 
L 1178 0 
L 603 0 
L 603 4863 
z
" transform="scale(0.015625)"/>
     </defs>
     <use xlink:href="#DejaVuSans-45"/>
     <use xlink:href="#DejaVuSans-78" x="63.183594"/>
     <use xlink:href="#DejaVuSans-61" x="122.363281"/>
     <use xlink:href="#DejaVuSans-6d" x="183.642578"/>
     <use xlink:href="#DejaVuSans-70" x="281.054688"/>
     <use xlink:href="#DejaVuSans-6c" x="344.53125"/>
     <use xlink:href="#DejaVuSans-65" x="372.314453"/>
    </g>
   </g>
  </g>
  <g id="axes_5">
   <g id="matplotlib.axis_9"/>
   <g id="matplotlib.axis_10"/>
   <g id="patch_10">
    <path d="M 132.996609 201.040335 
C 130.576516 196.84861 127.5017 193.070667 123.888769 189.849777 
C 120.275837 186.628887 116.171046 184.006286 111.730061 182.081432 
C 107.289077 180.156578 102.568756 178.954114 97.748109 178.519642 
C 92.927461 178.08517 88.068205 178.424252 83.354619 179.524029 
C 78.641032 180.623806 74.133463 182.470197 70.002851 184.993183 
C 65.872239 187.516168 62.171469 190.683446 59.040886 194.374903 
C 55.910302 198.06636 53.389986 202.234735 51.575514 206.72195 
C 49.761043 211.209165 48.675647 215.957771 48.360488 220.787687 
C 48.045329 225.617602 48.504442 230.46699 49.720417 235.151946 
C 50.936391 239.836902 52.893659 244.297445 55.517994 248.364419 
C 58.142328 252.431392 61.400132 256.052727 65.167858 259.09109 
C 68.935583 262.129453 73.164994 264.545945 77.695697 266.248925 
C 82.226399 267.951904 87.000388 268.919569 91.836619 269.115222 
C 96.67285 269.310875 101.509404 268.732011 106.162866 267.400582 
C 110.816328 266.069154 115.227119 264.002207 119.227968 261.278126 
C 123.228817 258.554046 126.768502 255.207709 129.712787 251.366017 
L 93.672127 223.744335 
L 132.996609 201.040335 
z
" style="fill: #1f77b4; stroke: #ffffff; stroke-linejoin: miter"/>
   </g>
   <g id="patch_11">
    <path d="M 134.243951 251.661682 
C 139.703614 244.537936 142.930523 235.952888 143.514931 226.996653 
C 144.099339 218.040417 142.015417 209.10883 137.527777 201.336007 
L 98.203291 224.04 
L 134.243951 251.661682 
z
" style="fill: #ff7f0e; stroke: #ffffff; stroke-linejoin: miter"/>
   </g>
   <g id="text_21">
    <!-- Yes -->
    <g style="fill: #262626" transform="translate(27.684011 223.251397)scale(0.1 -0.1)">
     <use xlink:href="#DejaVuSans-59"/>
     <use xlink:href="#DejaVuSans-65" x="47.833984"/>
     <use xlink:href="#DejaVuSans-73" x="109.357422"/>
    </g>
   </g>
   <g id="text_22">
    <!-- 81% -->
    <g style="fill: #262626" transform="translate(55.371862 224.729721)scale(0.1 -0.1)">
     <defs>
      <path id="DejaVuSans-38" d="M 2034 2216 
Q 1584 2216 1326 1975 
Q 1069 1734 1069 1313 
Q 1069 891 1326 650 
Q 1584 409 2034 409 
Q 2484 409 2743 651 
Q 3003 894 3003 1313 
Q 3003 1734 2745 1975 
Q 2488 2216 2034 2216 
z
M 1403 2484 
Q 997 2584 770 2862 
Q 544 3141 544 3541 
Q 544 4100 942 4425 
Q 1341 4750 2034 4750 
Q 2731 4750 3128 4425 
Q 3525 4100 3525 3541 
Q 3525 3141 3298 2862 
Q 3072 2584 2669 2484 
Q 3125 2378 3379 2068 
Q 3634 1759 3634 1313 
Q 3634 634 3220 271 
Q 2806 -91 2034 -91 
Q 1263 -91 848 271 
Q 434 634 434 1313 
Q 434 1759 690 2068 
Q 947 2378 1403 2484 
z
M 1172 3481 
Q 1172 3119 1398 2916 
Q 1625 2713 2034 2713 
Q 2441 2713 2670 2916 
Q 2900 3119 2900 3481 
Q 2900 3844 2670 4047 
Q 2441 4250 2034 4250 
Q 1625 4250 1398 4047 
Q 1172 3844 1172 3481 
z
" transform="scale(0.015625)"/>
     </defs>
     <use xlink:href="#DejaVuSans-38"/>
     <use xlink:href="#DejaVuSans-31" x="63.623047"/>
     <use xlink:href="#DejaVuSans-25" x="127.246094"/>
    </g>
   </g>
   <g id="text_23">
    <!-- No -->
    <g style="fill: #262626" transform="translate(148.046095 230.051693)scale(0.1 -0.1)">
     <use xlink:href="#DejaVuSans-4e"/>
     <use xlink:href="#DejaVuSans-6f" x="74.804688"/>
    </g>
   </g>
   <g id="text_24">
    <!-- 19% -->
    <g style="fill: #262626" transform="translate(114.276994 228.573367)scale(0.1 -0.1)">
     <use xlink:href="#DejaVuSans-31"/>
     <use xlink:href="#DejaVuSans-39" x="63.623047"/>
     <use xlink:href="#DejaVuSans-25" x="127.246094"/>
    </g>
   </g>
   <g id="text_25">
    <!-- Pattern -->
    <g style="fill: #262626" transform="translate(76.618291 161.28)scale(0.12 -0.12)">
     <defs>
      <path id="DejaVuSans-50" d="M 1259 4147 
L 1259 2394 
L 2053 2394 
Q 2494 2394 2734 2622 
Q 2975 2850 2975 3272 
Q 2975 3691 2734 3919 
Q 2494 4147 2053 4147 
L 1259 4147 
z
M 628 4666 
L 2053 4666 
Q 2838 4666 3239 4311 
Q 3641 3956 3641 3272 
Q 3641 2581 3239 2228 
Q 2838 1875 2053 1875 
L 1259 1875 
L 1259 0 
L 628 0 
L 628 4666 
z
" transform="scale(0.015625)"/>
     </defs>
     <use xlink:href="#DejaVuSans-50"/>
     <use xlink:href="#DejaVuSans-61" x="55.802734"/>
     <use xlink:href="#DejaVuSans-74" x="117.082031"/>
     <use xlink:href="#DejaVuSans-74" x="156.291016"/>
     <use xlink:href="#DejaVuSans-65" x="195.5"/>
     <use xlink:href="#DejaVuSans-72" x="257.023438"/>
     <use xlink:href="#DejaVuSans-6e" x="296.386719"/>
    </g>
   </g>
  </g>
  <g id="axes_6">
   <g id="matplotlib.axis_11"/>
   <g id="matplotlib.axis_12"/>
   <g id="patch_12">
    <path d="M 308.336802 201.694901 
C 305.779304 197.265185 302.491613 193.299277 298.612789 189.964925 
C 294.733965 186.630572 290.319478 183.975458 285.556046 182.111886 
C 280.792615 180.248314 275.748359 179.202934 270.636637 179.019962 
C 265.524915 178.836991 260.418827 179.519045 255.534345 181.037274 
C 250.649864 182.555504 246.05684 184.888199 241.949545 187.936692 
C 237.84225 190.985186 234.279421 194.705882 231.411756 198.941407 
C 228.54409 203.176933 226.412596 207.866716 225.107431 212.812394 
C 223.802266 217.758071 223.342094 222.888916 223.746379 227.98791 
C 224.150664 233.086904 225.413624 238.081127 227.48184 242.759338 
C 229.550056 247.43755 232.393952 251.732849 235.893238 255.463556 
C 239.392524 259.194264 243.497158 262.307029 248.033528 264.67019 
C 252.569898 267.033352 257.473129 268.613115 262.535831 269.342661 
C 267.598532 270.072207 272.748303 269.941102 277.767324 268.954892 
C 282.786345 267.968683 287.602841 266.141471 292.013088 263.550544 
C 296.423335 260.959617 300.364264 257.642025 303.669184 253.738094 
C 306.974105 249.834163 309.595756 245.39972 311.423248 240.62233 
L 269.012321 224.398901 
L 308.336802 201.694901 
z
" style="fill: #1f77b4; stroke: #ffffff; stroke-linejoin: miter"/>
   </g>
   <g id="patch_13">
    <path d="M 315.949843 240.26343 
C 318.36334 233.954119 319.33878 227.185029 318.804856 220.450989 
C 318.270933 213.716949 316.240981 207.186148 312.863394 201.335996 
L 273.538915 224.04 
L 315.949843 240.26343 
z
" style="fill: #ff7f0e; stroke: #ffffff; stroke-linejoin: miter"/>
   </g>
   <g id="text_26">
    <!-- Yes -->
    <g style="fill: #262626" transform="translate(203.074472 231.106186)scale(0.1 -0.1)">
     <use xlink:href="#DejaVuSans-59"/>
     <use xlink:href="#DejaVuSans-65" x="47.833984"/>
     <use xlink:href="#DejaVuSans-73" x="109.357422"/>
    </g>
   </g>
   <g id="text_27">
    <!-- 86% -->
    <g style="fill: #262626" transform="translate(230.739474 229.311681)scale(0.1 -0.1)">
     <defs>
      <path id="DejaVuSans-36" d="M 2113 2584 
Q 1688 2584 1439 2293 
Q 1191 2003 1191 1497 
Q 1191 994 1439 701 
Q 1688 409 2113 409 
Q 2538 409 2786 701 
Q 3034 994 3034 1497 
Q 3034 2003 2786 2293 
Q 2538 2584 2113 2584 
z
M 3366 4563 
L 3366 3988 
Q 3128 4100 2886 4159 
Q 2644 4219 2406 4219 
Q 1781 4219 1451 3797 
Q 1122 3375 1075 2522 
Q 1259 2794 1537 2939 
Q 1816 3084 2150 3084 
Q 2853 3084 3261 2657 
Q 3669 2231 3669 1497 
Q 3669 778 3244 343 
Q 2819 -91 2113 -91 
Q 1303 -91 875 529 
Q 447 1150 447 2328 
Q 447 3434 972 4092 
Q 1497 4750 2381 4750 
Q 2619 4750 2861 4703 
Q 3103 4656 3366 4563 
z
" transform="scale(0.015625)"/>
     </defs>
     <use xlink:href="#DejaVuSans-38"/>
     <use xlink:href="#DejaVuSans-36" x="63.623047"/>
     <use xlink:href="#DejaVuSans-25" x="127.246094"/>
    </g>
   </g>
   <g id="text_28">
    <!-- No -->
    <g style="fill: #262626" transform="translate(323.33145 222.851463)scale(0.1 -0.1)">
     <use xlink:href="#DejaVuSans-4e"/>
     <use xlink:href="#DejaVuSans-6f" x="74.804688"/>
    </g>
   </g>
   <g id="text_29">
    <!-- 14% -->
    <g style="fill: #262626" transform="translate(289.585198 224.645968)scale(0.1 -0.1)">
     <defs>
      <path id="DejaVuSans-34" d="M 2419 4116 
L 825 1625 
L 2419 1625 
L 2419 4116 
z
M 2253 4666 
L 3047 4666 
L 3047 1625 
L 3713 1625 
L 3713 1100 
L 3047 1100 
L 3047 0 
L 2419 0 
L 2419 1100 
L 313 1100 
L 313 1709 
L 2253 4666 
z
" transform="scale(0.015625)"/>
     </defs>
     <use xlink:href="#DejaVuSans-31"/>
     <use xlink:href="#DejaVuSans-34" x="63.623047"/>
     <use xlink:href="#DejaVuSans-25" x="127.246094"/>
    </g>
   </g>
   <g id="text_30">
    <!-- Provider -->
    <g style="fill: #262626" transform="translate(248.837665 161.28)scale(0.12 -0.12)">
     <defs>
      <path id="DejaVuSans-76" d="M 191 3500 
L 800 3500 
L 1894 563 
L 2988 3500 
L 3597 3500 
L 2284 0 
L 1503 0 
L 191 3500 
z
" transform="scale(0.015625)"/>
      <path id="DejaVuSans-64" d="M 2906 2969 
L 2906 4863 
L 3481 4863 
L 3481 0 
L 2906 0 
L 2906 525 
Q 2725 213 2448 61 
Q 2172 -91 1784 -91 
Q 1150 -91 751 415 
Q 353 922 353 1747 
Q 353 2572 751 3078 
Q 1150 3584 1784 3584 
Q 2172 3584 2448 3432 
Q 2725 3281 2906 2969 
z
M 947 1747 
Q 947 1113 1208 752 
Q 1469 391 1925 391 
Q 2381 391 2643 752 
Q 2906 1113 2906 1747 
Q 2906 2381 2643 2742 
Q 2381 3103 1925 3103 
Q 1469 3103 1208 2742 
Q 947 2381 947 1747 
z
" transform="scale(0.015625)"/>
     </defs>
     <use xlink:href="#DejaVuSans-50"/>
     <use xlink:href="#DejaVuSans-72" x="58.552734"/>
     <use xlink:href="#DejaVuSans-6f" x="97.416016"/>
     <use xlink:href="#DejaVuSans-76" x="158.597656"/>
     <use xlink:href="#DejaVuSans-69" x="217.777344"/>
     <use xlink:href="#DejaVuSans-64" x="245.560547"/>
     <use xlink:href="#DejaVuSans-65" x="309.037109"/>
     <use xlink:href="#DejaVuSans-72" x="370.560547"/>
    </g>
   </g>
  </g>
  <g id="axes_7">
   <g id="matplotlib.axis_13"/>
   <g id="matplotlib.axis_14"/>
   <g id="patch_14">
    <path d="M 490.755696 197.583365 
C 487.34245 191.671449 482.639568 186.604638 476.997978 182.761013 
C 471.356387 178.917388 464.919991 176.394992 458.16907 175.382045 
L 451.431214 220.287365 
L 490.755696 197.583365 
z
" style="fill: #1f77b4; stroke: #ffffff; stroke-linejoin: miter"/>
   </g>
   <g id="patch_15">
    <path d="M 455.612394 179.13468 
C 450.562793 178.377008 445.421372 178.476477 440.404855 179.428892 
C 435.388338 180.381308 430.568215 182.173097 426.147665 184.728733 
C 421.727115 187.284369 417.769135 190.567431 414.440563 194.43953 
C 411.111992 198.311628 408.460264 202.717583 406.597156 207.471673 
C 404.734049 212.225763 403.686113 217.260236 403.49752 222.36288 
C 403.308928 227.465524 403.982368 232.563619 405.489453 237.44227 
C 406.996537 242.320921 409.315789 246.910601 412.349447 251.017846 
C 415.383105 255.125091 419.087935 258.691368 423.307771 261.566349 
C 427.527608 264.441331 432.202313 266.584047 437.134837 267.904175 
C 442.067362 269.224304 447.187412 269.703033 452.279167 269.320183 
C 457.370921 268.937333 462.361817 267.698359 467.041477 265.655487 
C 471.721137 263.612616 476.02287 260.79496 479.76535 257.321289 
C 483.507829 253.847619 486.63772 249.767438 489.023091 245.252735 
C 491.408463 240.738032 493.015319 235.853146 493.775929 230.803987 
C 494.536539 225.754827 494.440063 220.61335 493.490567 215.59628 
C 492.541071 210.579209 490.752087 205.758044 488.199024 201.336007 
L 448.874538 224.04 
L 455.612394 179.13468 
z
" style="fill: #ff7f0e; stroke: #ffffff; stroke-linejoin: miter"/>
   </g>
   <g id="text_31">
    <!-- Yes -->
    <g style="fill: #262626" transform="translate(479.554654 181.767753)scale(0.1 -0.1)">
     <use xlink:href="#DejaVuSans-59"/>
     <use xlink:href="#DejaVuSans-65" x="47.833984"/>
     <use xlink:href="#DejaVuSans-73" x="109.357422"/>
    </g>
   </g>
   <g id="text_32">
    <!-- 14% -->
    <g style="fill: #262626" transform="translate(455.657991 200.530929)scale(0.1 -0.1)">
     <use xlink:href="#DejaVuSans-31"/>
     <use xlink:href="#DejaVuSans-34" x="63.623047"/>
     <use xlink:href="#DejaVuSans-25" x="127.246094"/>
    </g>
   </g>
   <g id="text_33">
    <!-- No -->
    <g style="fill: #262626" transform="translate(407.151095 268.078359)scale(0.1 -0.1)">
     <use xlink:href="#DejaVuSans-4e"/>
     <use xlink:href="#DejaVuSans-6f" x="74.804688"/>
    </g>
   </g>
   <g id="text_34">
    <!-- 86% -->
    <g style="fill: #262626" transform="translate(422.421197 249.315185)scale(0.1 -0.1)">
     <use xlink:href="#DejaVuSans-38"/>
     <use xlink:href="#DejaVuSans-36" x="63.623047"/>
     <use xlink:href="#DejaVuSans-25" x="127.246094"/>
    </g>
   </g>
   <g id="text_35">
    <!-- License -->
    <g style="fill: #262626" transform="translate(426.253601 161.28)scale(0.12 -0.12)">
     <defs>
      <path id="DejaVuSans-4c" d="M 628 4666 
L 1259 4666 
L 1259 531 
L 3531 531 
L 3531 0 
L 628 0 
L 628 4666 
z
" transform="scale(0.015625)"/>
     </defs>
     <use xlink:href="#DejaVuSans-4c"/>
     <use xlink:href="#DejaVuSans-69" x="55.712891"/>
     <use xlink:href="#DejaVuSans-63" x="83.496094"/>
     <use xlink:href="#DejaVuSans-65" x="138.476562"/>
     <use xlink:href="#DejaVuSans-6e" x="200"/>
     <use xlink:href="#DejaVuSans-73" x="263.378906"/>
     <use xlink:href="#DejaVuSans-65" x="315.478516"/>
    </g>
   </g>
  </g>
  <g id="axes_8">
   <g id="matplotlib.axis_15"/>
   <g id="matplotlib.axis_16"/>
   <g id="patch_16">
    <path d="M 663.534643 201.336 
C 659.006992 193.493878 652.235372 187.182537 644.094453 183.217195 
C 635.953533 179.251852 626.809597 177.810919 617.843738 179.080517 
C 608.877879 180.350115 600.493496 184.27312 593.773573 190.342811 
C 587.053651 196.412502 582.300536 204.355785 580.128176 213.146653 
L 624.210161 224.04 
L 663.534643 201.336 
z
" style="fill: #1f77b4; stroke: #ffffff; stroke-linejoin: miter"/>
   </g>
   <g id="patch_17">
    <path d="M 580.128176 213.146653 
C 577.984801 221.820224 578.448277 230.936466 581.460266 239.347935 
C 584.472254 247.759403 589.900851 255.097729 597.062767 260.43925 
C 604.224682 265.780771 612.806271 268.891562 621.727383 269.380074 
C 630.648495 269.868585 639.518442 267.713423 647.220779 263.185854 
L 624.210161 224.04 
L 580.128176 213.146653 
z
" style="fill: #ff7f0e; stroke: #ffffff; stroke-linejoin: miter"/>
   </g>
   <g id="patch_18">
    <path d="M 647.220779 263.185854 
C 655.444512 258.3518 661.939506 251.047052 665.778577 242.31439 
C 669.617647 233.581727 670.608987 223.857451 668.611078 214.529739 
L 624.210161 224.04 
L 647.220779 263.185854 
z
" style="fill: #2ca02c; stroke: #ffffff; stroke-linejoin: miter"/>
   </g>
   <g id="patch_19">
    <path d="M 668.611078 214.529739 
C 668.462428 213.835729 668.297526 213.1453 668.116509 212.45902 
C 667.935492 211.772741 667.73841 211.0908 667.525425 210.413759 
L 624.210161 224.04 
L 668.611078 214.529739 
z
" style="fill: #d62728; stroke: #ffffff; stroke-linejoin: miter"/>
   </g>
   <g id="patch_20">
    <path d="M 667.525425 210.413759 
C 667.312439 209.736719 667.083609 209.064765 666.839124 208.398452 
C 666.594638 207.732138 666.334564 207.071649 666.059115 206.417527 
L 624.210161 224.04 
L 667.525425 210.413759 
z
" style="fill: #9467bd; stroke: #ffffff; stroke-linejoin: miter"/>
   </g>
   <g id="patch_21">
    <path d="M 666.059115 206.417527 
C 665.967303 206.199496 665.873788 205.982185 665.778579 205.765615 
C 665.68337 205.549045 665.58647 205.333223 665.487888 205.118167 
L 624.210161 224.04 
L 666.059115 206.417527 
z
" style="fill: #8c564b; stroke: #ffffff; stroke-linejoin: miter"/>
   </g>
   <g id="patch_22">
    <path d="M 665.487888 205.118167 
C 665.389306 204.903112 665.289045 204.68883 665.187113 204.475341 
C 665.085182 204.261853 664.981584 204.049164 664.876329 203.837295 
L 624.210161 224.04 
L 665.487888 205.118167 
z
" style="fill: #e377c2; stroke: #ffffff; stroke-linejoin: miter"/>
   </g>
   <g id="patch_23">
    <path d="M 664.876329 203.837295 
C 664.771074 203.625426 664.664164 203.414382 664.55561 203.204184 
C 664.447056 202.993986 664.336861 202.784639 664.225036 202.576163 
L 624.210161 224.04 
L 664.876329 203.837295 
z
" style="fill: #7f7f7f; stroke: #ffffff; stroke-linejoin: miter"/>
   </g>
   <g id="patch_24">
    <path d="M 664.225036 202.576163 
C 664.11321 202.367687 663.999756 202.160088 663.884686 201.953385 
C 663.769615 201.746682 663.652931 201.540881 663.534644 201.336002 
L 624.210161 224.04 
L 664.225036 202.576163 
z
" style="fill: #bcbd22; stroke: #ffffff; stroke-linejoin: miter"/>
   </g>
   <g id="text_36">
    <!-- CC BY 3.0 -->
    <g style="fill: #262626" transform="translate(568.563346 177.343944)scale(0.1 -0.1)">
     <defs>
      <path id="DejaVuSans-43" d="M 4122 4306 
L 4122 3641 
Q 3803 3938 3442 4084 
Q 3081 4231 2675 4231 
Q 1875 4231 1450 3742 
Q 1025 3253 1025 2328 
Q 1025 1406 1450 917 
Q 1875 428 2675 428 
Q 3081 428 3442 575 
Q 3803 722 4122 1019 
L 4122 359 
Q 3791 134 3420 21 
Q 3050 -91 2638 -91 
Q 1578 -91 968 557 
Q 359 1206 359 2328 
Q 359 3453 968 4101 
Q 1578 4750 2638 4750 
Q 3056 4750 3426 4639 
Q 3797 4528 4122 4306 
z
" transform="scale(0.015625)"/>
      <path id="DejaVuSans-20" transform="scale(0.015625)"/>
      <path id="DejaVuSans-42" d="M 1259 2228 
L 1259 519 
L 2272 519 
Q 2781 519 3026 730 
Q 3272 941 3272 1375 
Q 3272 1813 3026 2020 
Q 2781 2228 2272 2228 
L 1259 2228 
z
M 1259 4147 
L 1259 2741 
L 2194 2741 
Q 2656 2741 2882 2914 
Q 3109 3088 3109 3444 
Q 3109 3797 2882 3972 
Q 2656 4147 2194 4147 
L 1259 4147 
z
M 628 4666 
L 2241 4666 
Q 2963 4666 3353 4366 
Q 3744 4066 3744 3513 
Q 3744 3084 3544 2831 
Q 3344 2578 2956 2516 
Q 3422 2416 3680 2098 
Q 3938 1781 3938 1306 
Q 3938 681 3513 340 
Q 3088 0 2303 0 
L 628 0 
L 628 4666 
z
" transform="scale(0.015625)"/>
      <path id="DejaVuSans-2e" d="M 684 794 
L 1344 794 
L 1344 0 
L 684 0 
L 684 794 
z
" transform="scale(0.015625)"/>
      <path id="DejaVuSans-30" d="M 2034 4250 
Q 1547 4250 1301 3770 
Q 1056 3291 1056 2328 
Q 1056 1369 1301 889 
Q 1547 409 2034 409 
Q 2525 409 2770 889 
Q 3016 1369 3016 2328 
Q 3016 3291 2770 3770 
Q 2525 4250 2034 4250 
z
M 2034 4750 
Q 2819 4750 3233 4129 
Q 3647 3509 3647 2328 
Q 3647 1150 3233 529 
Q 2819 -91 2034 -91 
Q 1250 -91 836 529 
Q 422 1150 422 2328 
Q 422 3509 836 4129 
Q 1250 4750 2034 4750 
z
" transform="scale(0.015625)"/>
     </defs>
     <use xlink:href="#DejaVuSans-43"/>
     <use xlink:href="#DejaVuSans-43" x="69.824219"/>
     <use xlink:href="#DejaVuSans-20" x="139.648438"/>
     <use xlink:href="#DejaVuSans-42" x="171.435547"/>
     <use xlink:href="#DejaVuSans-59" x="234.539062"/>
     <use xlink:href="#DejaVuSans-20" x="295.623047"/>
     <use xlink:href="#DejaVuSans-33" x="327.410156"/>
     <use xlink:href="#DejaVuSans-2e" x="391.033203"/>
     <use xlink:href="#DejaVuSans-30" x="422.820312"/>
    </g>
   </g>
   <g id="text_37">
    <!-- 38% -->
    <g style="fill: #262626" transform="translate(609.277026 199.823685)scale(0.1 -0.1)">
     <use xlink:href="#DejaVuSans-33"/>
     <use xlink:href="#DejaVuSans-38" x="63.623047"/>
     <use xlink:href="#DejaVuSans-25" x="127.246094"/>
    </g>
   </g>
   <g id="text_38">
    <!-- CC BY 4.0 -->
    <g style="fill: #262626" transform="translate(545.704277 266.83855)scale(0.1 -0.1)">
     <use xlink:href="#DejaVuSans-43"/>
     <use xlink:href="#DejaVuSans-43" x="69.824219"/>
     <use xlink:href="#DejaVuSans-20" x="139.648438"/>
     <use xlink:href="#DejaVuSans-42" x="171.435547"/>
     <use xlink:href="#DejaVuSans-59" x="234.539062"/>
     <use xlink:href="#DejaVuSans-20" x="295.623047"/>
     <use xlink:href="#DejaVuSans-34" x="327.410156"/>
     <use xlink:href="#DejaVuSans-2e" x="391.033203"/>
     <use xlink:href="#DejaVuSans-30" x="422.820312"/>
    </g>
   </g>
   <g id="text_39">
    <!-- 37% -->
    <g style="fill: #262626" transform="translate(596.808443 248.638925)scale(0.1 -0.1)">
     <use xlink:href="#DejaVuSans-33"/>
     <use xlink:href="#DejaVuSans-37" x="63.623047"/>
     <use xlink:href="#DejaVuSans-25" x="127.246094"/>
    </g>
   </g>
   <g id="text_40">
    <!-- CC0 1.0 -->
    <g style="fill: #262626" transform="translate(669.935418 246.901204)scale(0.1 -0.1)">
     <use xlink:href="#DejaVuSans-43"/>
     <use xlink:href="#DejaVuSans-43" x="69.824219"/>
     <use xlink:href="#DejaVuSans-30" x="139.648438"/>
     <use xlink:href="#DejaVuSans-20" x="203.271484"/>
     <use xlink:href="#DejaVuSans-31" x="235.058594"/>
     <use xlink:href="#DejaVuSans-2e" x="298.681641"/>
     <use xlink:href="#DejaVuSans-30" x="330.46875"/>
    </g>
   </g>
   <g id="text_41">
    <!-- 20% -->
    <g style="fill: #262626" transform="translate(638.037929 237.764009)scale(0.1 -0.1)">
     <defs>
      <path id="DejaVuSans-32" d="M 1228 531 
L 3431 531 
L 3431 0 
L 469 0 
L 469 531 
Q 828 903 1448 1529 
Q 2069 2156 2228 2338 
Q 2531 2678 2651 2914 
Q 2772 3150 2772 3378 
Q 2772 3750 2511 3984 
Q 2250 4219 1831 4219 
Q 1534 4219 1204 4116 
Q 875 4013 500 3803 
L 500 4441 
Q 881 4594 1212 4672 
Q 1544 4750 1819 4750 
Q 2544 4750 2975 4387 
Q 3406 4025 3406 3419 
Q 3406 3131 3298 2873 
Q 3191 2616 2906 2266 
Q 2828 2175 2409 1742 
Q 1991 1309 1228 531 
z
" transform="scale(0.015625)"/>
     </defs>
     <use xlink:href="#DejaVuSans-32"/>
     <use xlink:href="#DejaVuSans-30" x="63.623047"/>
     <use xlink:href="#DejaVuSans-25" x="127.246094"/>
    </g>
   </g>
   <g id="text_42">
    <!-- Artistic License 2.0 -->
    <g style="fill: #262626" transform="translate(672.507144 214.060297)scale(0.1 -0.1)">
     <defs>
      <path id="DejaVuSans-41" d="M 2188 4044 
L 1331 1722 
L 3047 1722 
L 2188 4044 
z
M 1831 4666 
L 2547 4666 
L 4325 0 
L 3669 0 
L 3244 1197 
L 1141 1197 
L 716 0 
L 50 0 
L 1831 4666 
z
" transform="scale(0.015625)"/>
     </defs>
     <use xlink:href="#DejaVuSans-41"/>
     <use xlink:href="#DejaVuSans-72" x="68.408203"/>
     <use xlink:href="#DejaVuSans-74" x="109.521484"/>
     <use xlink:href="#DejaVuSans-69" x="148.730469"/>
     <use xlink:href="#DejaVuSans-73" x="176.513672"/>
     <use xlink:href="#DejaVuSans-74" x="228.613281"/>
     <use xlink:href="#DejaVuSans-69" x="267.822266"/>
     <use xlink:href="#DejaVuSans-63" x="295.605469"/>
     <use xlink:href="#DejaVuSans-20" x="350.585938"/>
     <use xlink:href="#DejaVuSans-4c" x="382.373047"/>
     <use xlink:href="#DejaVuSans-69" x="438.085938"/>
     <use xlink:href="#DejaVuSans-63" x="465.869141"/>
     <use xlink:href="#DejaVuSans-65" x="520.849609"/>
     <use xlink:href="#DejaVuSans-6e" x="582.373047"/>
     <use xlink:href="#DejaVuSans-73" x="645.751953"/>
     <use xlink:href="#DejaVuSans-65" x="697.851562"/>
     <use xlink:href="#DejaVuSans-20" x="759.375"/>
     <use xlink:href="#DejaVuSans-32" x="791.162109"/>
     <use xlink:href="#DejaVuSans-2e" x="854.785156"/>
     <use xlink:href="#DejaVuSans-30" x="886.572266"/>
    </g>
   </g>
   <g id="text_43">
    <!-- 1% -->
    <g style="fill: #262626" transform="translate(642.621939 219.850787)scale(0.1 -0.1)">
     <use xlink:href="#DejaVuSans-31"/>
     <use xlink:href="#DejaVuSans-25" x="63.623047"/>
    </g>
   </g>
   <g id="text_44">
    <!-- CC BY 2.0 -->
    <g style="fill: #262626" transform="translate(671.10202 209.593672)scale(0.1 -0.1)">
     <use xlink:href="#DejaVuSans-43"/>
     <use xlink:href="#DejaVuSans-43" x="69.824219"/>
     <use xlink:href="#DejaVuSans-20" x="139.648438"/>
     <use xlink:href="#DejaVuSans-42" x="171.435547"/>
     <use xlink:href="#DejaVuSans-59" x="234.539062"/>
     <use xlink:href="#DejaVuSans-20" x="295.623047"/>
     <use xlink:href="#DejaVuSans-32" x="327.410156"/>
     <use xlink:href="#DejaVuSans-2e" x="391.033203"/>
     <use xlink:href="#DejaVuSans-30" x="422.820312"/>
    </g>
   </g>
   <g id="text_45">
    <!-- 1% -->
    <g style="fill: #262626" transform="translate(641.855508 217.414446)scale(0.1 -0.1)">
     <use xlink:href="#DejaVuSans-31"/>
     <use xlink:href="#DejaVuSans-25" x="63.623047"/>
    </g>
   </g>
   <g id="text_46">
    <!-- CC BY-SA 2.0 -->
    <g style="fill: #262626" transform="translate(669.935421 206.697552)scale(0.1 -0.1)">
     <defs>
      <path id="DejaVuSans-2d" d="M 313 2009 
L 1997 2009 
L 1997 1497 
L 313 1497 
L 313 2009 
z
" transform="scale(0.015625)"/>
      <path id="DejaVuSans-53" d="M 3425 4513 
L 3425 3897 
Q 3066 4069 2747 4153 
Q 2428 4238 2131 4238 
Q 1616 4238 1336 4038 
Q 1056 3838 1056 3469 
Q 1056 3159 1242 3001 
Q 1428 2844 1947 2747 
L 2328 2669 
Q 3034 2534 3370 2195 
Q 3706 1856 3706 1288 
Q 3706 609 3251 259 
Q 2797 -91 1919 -91 
Q 1588 -91 1214 -16 
Q 841 59 441 206 
L 441 856 
Q 825 641 1194 531 
Q 1563 422 1919 422 
Q 2459 422 2753 634 
Q 3047 847 3047 1241 
Q 3047 1584 2836 1778 
Q 2625 1972 2144 2069 
L 1759 2144 
Q 1053 2284 737 2584 
Q 422 2884 422 3419 
Q 422 4038 858 4394 
Q 1294 4750 2059 4750 
Q 2388 4750 2728 4690 
Q 3069 4631 3425 4513 
z
" transform="scale(0.015625)"/>
     </defs>
     <use xlink:href="#DejaVuSans-43"/>
     <use xlink:href="#DejaVuSans-43" x="69.824219"/>
     <use xlink:href="#DejaVuSans-20" x="139.648438"/>
     <use xlink:href="#DejaVuSans-42" x="171.435547"/>
     <use xlink:href="#DejaVuSans-59" x="234.539062"/>
     <use xlink:href="#DejaVuSans-2d" x="283.748047"/>
     <use xlink:href="#DejaVuSans-53" x="319.832031"/>
     <use xlink:href="#DejaVuSans-41" x="385.183594"/>
     <use xlink:href="#DejaVuSans-20" x="453.591797"/>
     <use xlink:href="#DejaVuSans-32" x="485.378906"/>
     <use xlink:href="#DejaVuSans-2e" x="549.001953"/>
     <use xlink:href="#DejaVuSans-30" x="580.789062"/>
    </g>
   </g>
   <g id="text_47">
    <!-- 0% -->
    <g style="fill: #262626" transform="translate(641.219181 215.834744)scale(0.1 -0.1)">
     <use xlink:href="#DejaVuSans-30"/>
     <use xlink:href="#DejaVuSans-25" x="63.623047"/>
    </g>
   </g>
   <g id="text_48">
    <!-- Apache 2.0 License -->
    <g style="fill: #262626" transform="translate(669.284809 205.278251)scale(0.1 -0.1)">
     <defs>
      <path id="DejaVuSans-68" d="M 3513 2113 
L 3513 0 
L 2938 0 
L 2938 2094 
Q 2938 2591 2744 2837 
Q 2550 3084 2163 3084 
Q 1697 3084 1428 2787 
Q 1159 2491 1159 1978 
L 1159 0 
L 581 0 
L 581 4863 
L 1159 4863 
L 1159 2956 
Q 1366 3272 1645 3428 
Q 1925 3584 2291 3584 
Q 2894 3584 3203 3211 
Q 3513 2838 3513 2113 
z
" transform="scale(0.015625)"/>
     </defs>
     <use xlink:href="#DejaVuSans-41"/>
     <use xlink:href="#DejaVuSans-70" x="68.408203"/>
     <use xlink:href="#DejaVuSans-61" x="131.884766"/>
     <use xlink:href="#DejaVuSans-63" x="193.164062"/>
     <use xlink:href="#DejaVuSans-68" x="248.144531"/>
     <use xlink:href="#DejaVuSans-65" x="311.523438"/>
     <use xlink:href="#DejaVuSans-20" x="373.046875"/>
     <use xlink:href="#DejaVuSans-32" x="404.833984"/>
     <use xlink:href="#DejaVuSans-2e" x="468.457031"/>
     <use xlink:href="#DejaVuSans-30" x="500.244141"/>
     <use xlink:href="#DejaVuSans-20" x="563.867188"/>
     <use xlink:href="#DejaVuSans-4c" x="595.654297"/>
     <use xlink:href="#DejaVuSans-69" x="651.367188"/>
     <use xlink:href="#DejaVuSans-63" x="679.150391"/>
     <use xlink:href="#DejaVuSans-65" x="734.130859"/>
     <use xlink:href="#DejaVuSans-6e" x="795.654297"/>
     <use xlink:href="#DejaVuSans-73" x="859.033203"/>
     <use xlink:href="#DejaVuSans-65" x="911.132812"/>
    </g>
   </g>
   <g id="text_49">
    <!-- 0% -->
    <g style="fill: #262626" transform="translate(640.864301 215.06058)scale(0.1 -0.1)">
     <use xlink:href="#DejaVuSans-30"/>
     <use xlink:href="#DejaVuSans-25" x="63.623047"/>
    </g>
   </g>
   <g id="text_50">
    <!-- hpo -->
    <g style="fill: #262626" transform="translate(668.590155 203.879977)scale(0.1 -0.1)">
     <use xlink:href="#DejaVuSans-68"/>
     <use xlink:href="#DejaVuSans-70" x="63.378906"/>
     <use xlink:href="#DejaVuSans-6f" x="126.855469"/>
    </g>
   </g>
   <g id="text_51">
    <!-- 0% -->
    <g style="fill: #262626" transform="translate(640.485399 214.297885)scale(0.1 -0.1)">
     <use xlink:href="#DejaVuSans-30"/>
     <use xlink:href="#DejaVuSans-25" x="63.623047"/>
    </g>
   </g>
   <g id="text_52">
    <!-- GPL-3.0 -->
    <g style="fill: #262626" transform="translate(667.852138 202.504098)scale(0.1 -0.1)">
     <defs>
      <path id="DejaVuSans-47" d="M 3809 666 
L 3809 1919 
L 2778 1919 
L 2778 2438 
L 4434 2438 
L 4434 434 
Q 4069 175 3628 42 
Q 3188 -91 2688 -91 
Q 1594 -91 976 548 
Q 359 1188 359 2328 
Q 359 3472 976 4111 
Q 1594 4750 2688 4750 
Q 3144 4750 3555 4637 
Q 3966 4525 4313 4306 
L 4313 3634 
Q 3963 3931 3569 4081 
Q 3175 4231 2741 4231 
Q 1884 4231 1454 3753 
Q 1025 3275 1025 2328 
Q 1025 1384 1454 906 
Q 1884 428 2741 428 
Q 3075 428 3337 486 
Q 3600 544 3809 666 
z
" transform="scale(0.015625)"/>
     </defs>
     <use xlink:href="#DejaVuSans-47"/>
     <use xlink:href="#DejaVuSans-50" x="77.490234"/>
     <use xlink:href="#DejaVuSans-4c" x="137.792969"/>
     <use xlink:href="#DejaVuSans-2d" x="191.755859"/>
     <use xlink:href="#DejaVuSans-33" x="227.839844"/>
     <use xlink:href="#DejaVuSans-2e" x="291.462891"/>
     <use xlink:href="#DejaVuSans-30" x="323.25"/>
    </g>
   </g>
   <g id="text_53">
    <!-- 0% -->
    <g style="fill: #262626" transform="translate(640.082845 213.547406)scale(0.1 -0.1)">
     <use xlink:href="#DejaVuSans-30"/>
     <use xlink:href="#DejaVuSans-25" x="63.623047"/>
    </g>
   </g>
   <g id="text_54">
    <!-- License Type -->
    <g style="fill: #262626" transform="translate(585.902974 161.28)scale(0.12 -0.12)">
     <defs>
      <path id="DejaVuSans-54" d="M -19 4666 
L 3928 4666 
L 3928 4134 
L 2272 4134 
L 2272 0 
L 1638 0 
L 1638 4134 
L -19 4134 
L -19 4666 
z
" transform="scale(0.015625)"/>
      <path id="DejaVuSans-79" d="M 2059 -325 
Q 1816 -950 1584 -1140 
Q 1353 -1331 966 -1331 
L 506 -1331 
L 506 -850 
L 844 -850 
Q 1081 -850 1212 -737 
Q 1344 -625 1503 -206 
L 1606 56 
L 191 3500 
L 800 3500 
L 1894 763 
L 2988 3500 
L 3597 3500 
L 2059 -325 
z
" transform="scale(0.015625)"/>
     </defs>
     <use xlink:href="#DejaVuSans-4c"/>
     <use xlink:href="#DejaVuSans-69" x="55.712891"/>
     <use xlink:href="#DejaVuSans-63" x="83.496094"/>
     <use xlink:href="#DejaVuSans-65" x="138.476562"/>
     <use xlink:href="#DejaVuSans-6e" x="200"/>
     <use xlink:href="#DejaVuSans-73" x="263.378906"/>
     <use xlink:href="#DejaVuSans-65" x="315.478516"/>
     <use xlink:href="#DejaVuSans-20" x="377.001953"/>
     <use xlink:href="#DejaVuSans-54" x="408.789062"/>
     <use xlink:href="#DejaVuSans-79" x="454.248047"/>
     <use xlink:href="#DejaVuSans-70" x="513.427734"/>
     <use xlink:href="#DejaVuSans-65" x="576.904297"/>
    </g>
   </g>
  </g>
  <g id="axes_9">
   <g id="matplotlib.axis_17"/>
   <g id="matplotlib.axis_18"/>
   <g id="patch_25">
    <path d="M 139.668874 337.731683 
C 135.432782 330.394557 129.226618 324.387363 121.7554 320.392517 
C 114.284183 316.39767 105.841954 314.572395 97.387749 315.124043 
L 100.344392 360.435683 
L 139.668874 337.731683 
z
" style="fill: #1f77b4; stroke: #ffffff; stroke-linejoin: miter"/>
   </g>
   <g id="patch_26">
    <path d="M 95.246649 319.12836 
C 90.354829 319.447557 85.546823 320.556836 81.009617 322.413056 
C 76.472411 324.269276 72.265595 326.848057 68.552774 330.049111 
C 64.839952 333.250165 61.669888 337.031449 59.165866 341.245908 
C 56.661845 345.460367 54.856753 350.05265 53.820791 354.84416 
C 52.78483 359.635671 52.531604 364.563479 53.070963 369.43594 
C 53.610322 374.308402 54.935182 379.061523 56.994018 383.510454 
C 59.052853 387.959385 61.818625 392.045694 65.183772 395.610463 
C 68.548918 399.175232 72.469241 402.171643 76.79228 404.483165 
C 81.115318 406.794686 85.784293 408.390958 90.617627 409.209902 
C 95.450962 410.028847 100.385175 410.059707 105.228375 409.301283 
C 110.071574 408.542858 114.760151 407.005111 119.111764 404.747844 
C 123.463376 402.490576 127.420873 399.543436 130.830344 396.021037 
C 134.239816 392.498638 137.056483 388.447243 139.170806 384.024413 
C 141.285128 379.601582 142.669337 374.865404 143.269599 370.00007 
C 143.869861 365.134736 143.678293 360.204146 142.702346 355.400053 
C 141.726398 350.595959 139.978888 345.981457 137.527777 341.736007 
L 98.203291 364.44 
L 95.246649 319.12836 
z
" style="fill: #ff7f0e; stroke: #ffffff; stroke-linejoin: miter"/>
   </g>
   <g id="text_55">
    <!-- Yes -->
    <g style="fill: #262626" transform="translate(123.896501 319.147575)scale(0.1 -0.1)">
     <use xlink:href="#DejaVuSans-59"/>
     <use xlink:href="#DejaVuSans-65" x="47.833984"/>
     <use xlink:href="#DejaVuSans-73" x="109.357422"/>
    </g>
   </g>
   <g id="text_56">
    <!-- 18% -->
    <g style="fill: #262626" transform="translate(102.077716 339.169158)scale(0.1 -0.1)">
     <use xlink:href="#DejaVuSans-31"/>
     <use xlink:href="#DejaVuSans-38" x="63.623047"/>
     <use xlink:href="#DejaVuSans-25" x="127.246094"/>
    </g>
   </g>
   <g id="text_57">
    <!-- No -->
    <g style="fill: #262626" transform="translate(61.051178 411.246856)scale(0.1 -0.1)">
     <use xlink:href="#DejaVuSans-4e"/>
     <use xlink:href="#DejaVuSans-6f" x="74.804688"/>
    </g>
   </g>
   <g id="text_58">
    <!-- 82% -->
    <g style="fill: #262626" transform="translate(74.243403 391.225274)scale(0.1 -0.1)">
     <use xlink:href="#DejaVuSans-38"/>
     <use xlink:href="#DejaVuSans-32" x="63.623047"/>
     <use xlink:href="#DejaVuSans-25" x="127.246094"/>
    </g>
   </g>
   <g id="text_59">
    <!-- Version -->
    <g style="fill: #262626" transform="translate(76.139229 301.68)scale(0.12 -0.12)">
     <defs>
      <path id="DejaVuSans-56" d="M 1831 0 
L 50 4666 
L 709 4666 
L 2188 738 
L 3669 4666 
L 4325 4666 
L 2547 0 
L 1831 0 
z
" transform="scale(0.015625)"/>
     </defs>
     <use xlink:href="#DejaVuSans-56"/>
     <use xlink:href="#DejaVuSans-65" x="60.658203"/>
     <use xlink:href="#DejaVuSans-72" x="122.181641"/>
     <use xlink:href="#DejaVuSans-73" x="163.294922"/>
     <use xlink:href="#DejaVuSans-69" x="215.394531"/>
     <use xlink:href="#DejaVuSans-6f" x="243.177734"/>
     <use xlink:href="#DejaVuSans-6e" x="304.359375"/>
    </g>
   </g>
  </g>
  <g id="axes_10">
   <g id="matplotlib.axis_19"/>
   <g id="matplotlib.axis_20"/>
   <g id="patch_27">
    <path d="M 314.719954 337.592082 
C 309.944123 329.320099 302.677867 322.762208 293.961053 318.856901 
C 285.244239 314.951595 275.513516 313.8945 266.161438 315.836898 
L 275.395473 360.296082 
L 314.719954 337.592082 
z
" style="fill: #1f77b4; stroke: #ffffff; stroke-linejoin: miter"/>
   </g>
   <g id="patch_28">
    <path d="M 264.30488 319.980816 
C 259.635236 320.950686 255.147415 322.650223 251.006714 325.016829 
C 246.866014 327.383435 243.123902 330.387692 239.91821 333.918947 
C 236.712517 337.450203 234.083092 341.464563 232.12678 345.814169 
C 230.170469 350.163775 228.911589 354.794561 228.396508 359.535966 
C 227.881426 364.27737 228.116546 369.070457 229.093207 373.738686 
C 230.069868 378.406915 231.775931 382.892259 234.148556 387.029514 
C 236.521182 391.166768 239.530878 394.904506 243.066792 398.105059 
C 246.602706 401.305612 250.620886 403.929197 254.973333 405.87918 
C 259.325779 407.829163 263.958392 409.081307 268.700541 409.589492 
C 273.442689 410.097677 278.235429 409.855586 282.902233 408.872136 
C 287.569036 407.888687 292.051894 406.176103 296.185694 403.797463 
C 300.319493 401.418823 304.05285 398.403693 307.248257 394.863128 
C 310.443664 391.322563 313.061402 387.300571 315.005053 382.945293 
C 316.948704 378.590015 318.194108 373.955587 318.695396 369.212704 
C 319.196683 364.469821 318.947622 359.677438 317.957386 355.01207 
C 316.96715 350.346702 315.248048 345.866339 312.863398 341.736004 
L 273.538915 364.44 
L 264.30488 319.980816 
z
" style="fill: #ff7f0e; stroke: #ffffff; stroke-linejoin: miter"/>
   </g>
   <g id="text_60">
    <!-- Yes -->
    <g style="fill: #262626" transform="translate(295.817611 317.472358)scale(0.1 -0.1)">
     <use xlink:href="#DejaVuSans-59"/>
     <use xlink:href="#DejaVuSans-65" x="47.833984"/>
     <use xlink:href="#DejaVuSans-73" x="109.357422"/>
    </g>
   </g>
   <g id="text_61">
    <!-- 20% -->
    <g style="fill: #262626" transform="translate(275.42154 338.191948)scale(0.1 -0.1)">
     <use xlink:href="#DejaVuSans-32"/>
     <use xlink:href="#DejaVuSans-30" x="63.623047"/>
     <use xlink:href="#DejaVuSans-25" x="127.246094"/>
    </g>
   </g>
   <g id="text_62">
    <!-- No -->
    <g style="fill: #262626" transform="translate(239.516775 412.782473)scale(0.1 -0.1)">
     <use xlink:href="#DejaVuSans-4e"/>
     <use xlink:href="#DejaVuSans-6f" x="74.804688"/>
    </g>
   </g>
   <g id="text_63">
    <!-- 80% -->
    <g style="fill: #262626" transform="translate(251.286284 392.062883)scale(0.1 -0.1)">
     <use xlink:href="#DejaVuSans-38"/>
     <use xlink:href="#DejaVuSans-30" x="63.623047"/>
     <use xlink:href="#DejaVuSans-25" x="127.246094"/>
    </g>
   </g>
   <g id="text_64">
    <!-- Contact Email -->
    <g style="fill: #262626" transform="translate(231.64204 301.68)scale(0.12 -0.12)">
     <use xlink:href="#DejaVuSans-43"/>
     <use xlink:href="#DejaVuSans-6f" x="69.824219"/>
     <use xlink:href="#DejaVuSans-6e" x="131.005859"/>
     <use xlink:href="#DejaVuSans-74" x="194.384766"/>
     <use xlink:href="#DejaVuSans-61" x="233.59375"/>
     <use xlink:href="#DejaVuSans-63" x="294.873047"/>
     <use xlink:href="#DejaVuSans-74" x="349.853516"/>
     <use xlink:href="#DejaVuSans-20" x="389.0625"/>
     <use xlink:href="#DejaVuSans-45" x="420.849609"/>
     <use xlink:href="#DejaVuSans-6d" x="484.033203"/>
     <use xlink:href="#DejaVuSans-61" x="581.445312"/>
     <use xlink:href="#DejaVuSans-69" x="642.724609"/>
     <use xlink:href="#DejaVuSans-6c" x="670.507812"/>
    </g>
   </g>
  </g>
  <g id="axes_11">
   <g id="matplotlib.axis_21"/>
   <g id="matplotlib.axis_22"/>
   <g id="patch_29">
    <path d="M 491.697766 338.841585 
C 490.428994 336.644008 488.978241 334.556647 487.36075 332.601436 
C 485.743259 330.646226 483.964715 328.830037 482.043807 327.171953 
L 452.373285 361.545585 
L 491.697766 338.841585 
z
" style="fill: #1f77b4; stroke: #ffffff; stroke-linejoin: miter"/>
   </g>
   <g id="patch_30">
    <path d="M 478.545061 330.066368 
C 474.27331 326.379092 469.3514 323.520219 464.03204 321.636535 
C 458.712679 319.752851 453.088491 318.877154 447.448238 319.054406 
C 441.807986 319.231658 436.249881 320.458773 431.059294 322.672745 
C 425.868708 324.886718 421.136021 328.048998 417.104225 331.997224 
C 413.07243 335.94545 409.811729 340.610873 407.489538 345.753956 
C 405.167348 350.897038 403.824102 356.428225 403.528768 362.063528 
C 403.233434 367.698831 403.991155 373.340126 405.763026 378.697769 
C 407.534897 384.055412 410.290065 389.036113 413.887072 393.384148 
C 417.484079 397.732182 421.860292 401.37184 426.79102 404.116249 
C 431.721749 406.860657 437.121138 408.66203 442.711964 409.427878 
C 448.302791 410.193726 453.987705 409.910714 459.474824 408.593374 
C 464.961943 407.276033 470.155723 404.947302 474.789499 401.726744 
C 479.423274 398.506187 483.416359 394.449881 486.563735 389.766091 
C 489.711111 385.082302 491.957975 379.852584 493.188966 374.34545 
C 494.419957 368.838316 494.613639 363.149658 493.760069 357.571551 
C 492.906499 351.993443 491.020539 346.623015 488.199021 341.736002 
L 448.874538 364.44 
L 478.545061 330.066368 
z
" style="fill: #ff7f0e; stroke: #ffffff; stroke-linejoin: miter"/>
   </g>
   <g id="text_65">
    <!-- Yes -->
    <g style="fill: #262626" transform="translate(490.859496 332.466397)scale(0.1 -0.1)">
     <use xlink:href="#DejaVuSans-59"/>
     <use xlink:href="#DejaVuSans-65" x="47.833984"/>
     <use xlink:href="#DejaVuSans-73" x="109.357422"/>
    </g>
   </g>
   <g id="text_66">
    <!-- 5% -->
    <g style="fill: #262626" transform="translate(465.433733 346.938471)scale(0.1 -0.1)">
     <defs>
      <path id="DejaVuSans-35" d="M 691 4666 
L 3169 4666 
L 3169 4134 
L 1269 4134 
L 1269 2991 
Q 1406 3038 1543 3061 
Q 1681 3084 1819 3084 
Q 2600 3084 3056 2656 
Q 3513 2228 3513 1497 
Q 3513 744 3044 326 
Q 2575 -91 1722 -91 
Q 1428 -91 1123 -41 
Q 819 9 494 109 
L 494 744 
Q 775 591 1075 516 
Q 1375 441 1709 441 
Q 2250 441 2565 725 
Q 2881 1009 2881 1497 
Q 2881 1984 2565 2268 
Q 2250 2553 1709 2553 
Q 1456 2553 1204 2497 
Q 953 2441 691 2322 
L 691 4666 
z
" transform="scale(0.015625)"/>
     </defs>
     <use xlink:href="#DejaVuSans-35"/>
     <use xlink:href="#DejaVuSans-25" x="63.623047"/>
    </g>
   </g>
   <g id="text_67">
    <!-- No -->
    <g style="fill: #262626" transform="translate(396.788326 399.037938)scale(0.1 -0.1)">
     <use xlink:href="#DejaVuSans-4e"/>
     <use xlink:href="#DejaVuSans-6f" x="74.804688"/>
    </g>
   </g>
   <g id="text_68">
    <!-- 95% -->
    <g style="fill: #262626" transform="translate(416.768777 384.565864)scale(0.1 -0.1)">
     <use xlink:href="#DejaVuSans-39"/>
     <use xlink:href="#DejaVuSans-35" x="63.623047"/>
     <use xlink:href="#DejaVuSans-25" x="127.246094"/>
    </g>
   </g>
   <g id="text_69">
    <!-- Wikidata Database -->
    <g style="fill: #262626" transform="translate(392.217663 301.68)scale(0.12 -0.12)">
     <defs>
      <path id="DejaVuSans-57" d="M 213 4666 
L 850 4666 
L 1831 722 
L 2809 4666 
L 3519 4666 
L 4500 722 
L 5478 4666 
L 6119 4666 
L 4947 0 
L 4153 0 
L 3169 4050 
L 2175 0 
L 1381 0 
L 213 4666 
z
" transform="scale(0.015625)"/>
      <path id="DejaVuSans-6b" d="M 581 4863 
L 1159 4863 
L 1159 1991 
L 2875 3500 
L 3609 3500 
L 1753 1863 
L 3688 0 
L 2938 0 
L 1159 1709 
L 1159 0 
L 581 0 
L 581 4863 
z
" transform="scale(0.015625)"/>
      <path id="DejaVuSans-62" d="M 3116 1747 
Q 3116 2381 2855 2742 
Q 2594 3103 2138 3103 
Q 1681 3103 1420 2742 
Q 1159 2381 1159 1747 
Q 1159 1113 1420 752 
Q 1681 391 2138 391 
Q 2594 391 2855 752 
Q 3116 1113 3116 1747 
z
M 1159 2969 
Q 1341 3281 1617 3432 
Q 1894 3584 2278 3584 
Q 2916 3584 3314 3078 
Q 3713 2572 3713 1747 
Q 3713 922 3314 415 
Q 2916 -91 2278 -91 
Q 1894 -91 1617 61 
Q 1341 213 1159 525 
L 1159 0 
L 581 0 
L 581 4863 
L 1159 4863 
L 1159 2969 
z
" transform="scale(0.015625)"/>
     </defs>
     <use xlink:href="#DejaVuSans-57"/>
     <use xlink:href="#DejaVuSans-69" x="96.626953"/>
     <use xlink:href="#DejaVuSans-6b" x="124.410156"/>
     <use xlink:href="#DejaVuSans-69" x="182.320312"/>
     <use xlink:href="#DejaVuSans-64" x="210.103516"/>
     <use xlink:href="#DejaVuSans-61" x="273.580078"/>
     <use xlink:href="#DejaVuSans-74" x="334.859375"/>
     <use xlink:href="#DejaVuSans-61" x="374.068359"/>
     <use xlink:href="#DejaVuSans-20" x="435.347656"/>
     <use xlink:href="#DejaVuSans-44" x="467.134766"/>
     <use xlink:href="#DejaVuSans-61" x="544.136719"/>
     <use xlink:href="#DejaVuSans-74" x="605.416016"/>
     <use xlink:href="#DejaVuSans-61" x="644.625"/>
     <use xlink:href="#DejaVuSans-62" x="705.904297"/>
     <use xlink:href="#DejaVuSans-61" x="769.380859"/>
     <use xlink:href="#DejaVuSans-73" x="830.660156"/>
     <use xlink:href="#DejaVuSans-65" x="882.759766"/>
    </g>
   </g>
  </g>
  <g id="axes_12"/>
  <g id="text_70">
   <!-- https://github.com/biopragmatics/bioregistry (2022-05-21) -->
   <g style="fill: #808080; opacity: 0.5" transform="translate(278.67625 430.33625)scale(0.08 -0.08)">
    <defs>
     <path id="DejaVuSans-3a" d="M 750 794 
L 1409 794 
L 1409 0 
L 750 0 
L 750 794 
z
M 750 3309 
L 1409 3309 
L 1409 2516 
L 750 2516 
L 750 3309 
z
" transform="scale(0.015625)"/>
     <path id="DejaVuSans-2f" d="M 1625 4666 
L 2156 4666 
L 531 -594 
L 0 -594 
L 1625 4666 
z
" transform="scale(0.015625)"/>
     <path id="DejaVuSans-75" d="M 544 1381 
L 544 3500 
L 1119 3500 
L 1119 1403 
Q 1119 906 1312 657 
Q 1506 409 1894 409 
Q 2359 409 2629 706 
Q 2900 1003 2900 1516 
L 2900 3500 
L 3475 3500 
L 3475 0 
L 2900 0 
L 2900 538 
Q 2691 219 2414 64 
Q 2138 -91 1772 -91 
Q 1169 -91 856 284 
Q 544 659 544 1381 
z
M 1991 3584 
L 1991 3584 
z
" transform="scale(0.015625)"/>
     <path id="DejaVuSans-28" d="M 1984 4856 
Q 1566 4138 1362 3434 
Q 1159 2731 1159 2009 
Q 1159 1288 1364 580 
Q 1569 -128 1984 -844 
L 1484 -844 
Q 1016 -109 783 600 
Q 550 1309 550 2009 
Q 550 2706 781 3412 
Q 1013 4119 1484 4856 
L 1984 4856 
z
" transform="scale(0.015625)"/>
     <path id="DejaVuSans-29" d="M 513 4856 
L 1013 4856 
Q 1481 4119 1714 3412 
Q 1947 2706 1947 2009 
Q 1947 1309 1714 600 
Q 1481 -109 1013 -844 
L 513 -844 
Q 928 -128 1133 580 
Q 1338 1288 1338 2009 
Q 1338 2731 1133 3434 
Q 928 4138 513 4856 
z
" transform="scale(0.015625)"/>
    </defs>
    <use xlink:href="#DejaVuSans-68"/>
    <use xlink:href="#DejaVuSans-74" x="63.378906"/>
    <use xlink:href="#DejaVuSans-74" x="102.587891"/>
    <use xlink:href="#DejaVuSans-70" x="141.796875"/>
    <use xlink:href="#DejaVuSans-73" x="205.273438"/>
    <use xlink:href="#DejaVuSans-3a" x="257.373047"/>
    <use xlink:href="#DejaVuSans-2f" x="291.064453"/>
    <use xlink:href="#DejaVuSans-2f" x="324.755859"/>
    <use xlink:href="#DejaVuSans-67" x="358.447266"/>
    <use xlink:href="#DejaVuSans-69" x="421.923828"/>
    <use xlink:href="#DejaVuSans-74" x="449.707031"/>
    <use xlink:href="#DejaVuSans-68" x="488.916016"/>
    <use xlink:href="#DejaVuSans-75" x="552.294922"/>
    <use xlink:href="#DejaVuSans-62" x="615.673828"/>
    <use xlink:href="#DejaVuSans-2e" x="679.150391"/>
    <use xlink:href="#DejaVuSans-63" x="710.9375"/>
    <use xlink:href="#DejaVuSans-6f" x="765.917969"/>
    <use xlink:href="#DejaVuSans-6d" x="827.099609"/>
    <use xlink:href="#DejaVuSans-2f" x="924.511719"/>
    <use xlink:href="#DejaVuSans-62" x="958.203125"/>
    <use xlink:href="#DejaVuSans-69" x="1021.679688"/>
    <use xlink:href="#DejaVuSans-6f" x="1049.462891"/>
    <use xlink:href="#DejaVuSans-70" x="1110.644531"/>
    <use xlink:href="#DejaVuSans-72" x="1174.121094"/>
    <use xlink:href="#DejaVuSans-61" x="1215.234375"/>
    <use xlink:href="#DejaVuSans-67" x="1276.513672"/>
    <use xlink:href="#DejaVuSans-6d" x="1339.990234"/>
    <use xlink:href="#DejaVuSans-61" x="1437.402344"/>
    <use xlink:href="#DejaVuSans-74" x="1498.681641"/>
    <use xlink:href="#DejaVuSans-69" x="1537.890625"/>
    <use xlink:href="#DejaVuSans-63" x="1565.673828"/>
    <use xlink:href="#DejaVuSans-73" x="1620.654297"/>
    <use xlink:href="#DejaVuSans-2f" x="1672.753906"/>
    <use xlink:href="#DejaVuSans-62" x="1706.445312"/>
    <use xlink:href="#DejaVuSans-69" x="1769.921875"/>
    <use xlink:href="#DejaVuSans-6f" x="1797.705078"/>
    <use xlink:href="#DejaVuSans-72" x="1858.886719"/>
    <use xlink:href="#DejaVuSans-65" x="1897.75"/>
    <use xlink:href="#DejaVuSans-67" x="1959.273438"/>
    <use xlink:href="#DejaVuSans-69" x="2022.75"/>
    <use xlink:href="#DejaVuSans-73" x="2050.533203"/>
    <use xlink:href="#DejaVuSans-74" x="2102.632812"/>
    <use xlink:href="#DejaVuSans-72" x="2141.841797"/>
    <use xlink:href="#DejaVuSans-79" x="2182.955078"/>
    <use xlink:href="#DejaVuSans-20" x="2242.134766"/>
    <use xlink:href="#DejaVuSans-28" x="2273.921875"/>
    <use xlink:href="#DejaVuSans-32" x="2312.935547"/>
    <use xlink:href="#DejaVuSans-30" x="2376.558594"/>
    <use xlink:href="#DejaVuSans-32" x="2440.181641"/>
    <use xlink:href="#DejaVuSans-32" x="2503.804688"/>
    <use xlink:href="#DejaVuSans-2d" x="2567.427734"/>
    <use xlink:href="#DejaVuSans-30" x="2603.511719"/>
    <use xlink:href="#DejaVuSans-35" x="2667.134766"/>
    <use xlink:href="#DejaVuSans-2d" x="2730.757812"/>
    <use xlink:href="#DejaVuSans-32" x="2766.841797"/>
    <use xlink:href="#DejaVuSans-31" x="2830.464844"/>
    <use xlink:href="#DejaVuSans-29" x="2894.087891"/>
   </g>
  </g>
 </g>
</svg>
